<?xml version="1.0" encoding="UTF-8" standalone="no"?>
<svg
   xmlns:dc="http://purl.org/dc/elements/1.1/"
   xmlns:cc="http://creativecommons.org/ns#"
   xmlns:rdf="http://www.w3.org/1999/02/22-rdf-syntax-ns#"
   xmlns:svg="http://www.w3.org/2000/svg"
   xmlns="http://www.w3.org/2000/svg"
   xmlns:sodipodi="http://sodipodi.sourceforge.net/DTD/sodipodi-0.dtd"
   xmlns:inkscape="http://www.inkscape.org/namespaces/inkscape"
   version="1.1"
   id="Layer_1"
   x="0px"
   y="0px"
   viewBox="0 0 1920 1920"
   enable-background="new 0 0 1920 1920"
   xml:space="preserve"
   inkscape:version="0.91 r13725"
   sodipodi:docname="Crocodile.svg"><metadata
     id="metadata151"><rdf:RDF><cc:Work
         rdf:about=""><dc:format>image/svg+xml</dc:format><dc:type
           rdf:resource="http://purl.org/dc/dcmitype/StillImage" /><dc:title></dc:title></cc:Work></rdf:RDF></metadata><defs
     id="defs149"><linearGradient
       id="id1"
       y2="2095.6001"
       gradientUnits="userSpaceOnUse"
       x2="4071.8999"
       y1="952.44"
       x1="3391.3999"><stop
         style="stop-color:#434242"
         offset="0"
         id="stop14" /><stop
         style="stop-color:#2B2A29"
         offset="1"
         id="stop16" /></linearGradient><linearGradient
       id="id0"
       y2="2833.1001"
       gradientUnits="userSpaceOnUse"
       x2="4159.6001"
       y1="1625.8"
       x1="3754.1001"
       gradientTransform="matrix(0.10723801,-0.02743474,0.02837823,0.11092597,375.44122,276.0101)"><stop
         style="stop-color:#434242"
         offset="0"
         id="stop9" /><stop
         style="stop-color:#898989"
         offset="1"
         id="stop11" /></linearGradient></defs><sodipodi:namedview
     pagecolor="#ffffff"
     bordercolor="#666666"
     borderopacity="1"
     objecttolerance="10"
     gridtolerance="10"
     guidetolerance="10"
     inkscape:pageopacity="0"
     inkscape:pageshadow="2"
     inkscape:window-width="1240"
     inkscape:window-height="800"
     id="namedview147"
     showgrid="false"
     inkscape:zoom="0.24"
     inkscape:cx="1025.756"
     inkscape:cy="747.68066"
     inkscape:window-x="36"
     inkscape:window-y="0"
     inkscape:window-maximized="0"
     inkscape:current-layer="Layer_1" /><path
     style="fill:#008300;stroke:#008300;stroke-width:0.294"
     inkscape:connector-curvature="0"
     id="path23"
     d="m 1095.0156,319.05915 c 10.24,-1.99 20.7,-3.52 31.1801,-2.81 12.3899,0.82 24.85,2.83 36.5,7.24 8.1799,5.26 15.12,12.49 19.7599,21.08 6.75,12.3 9.9901,26.44 9.7001,40.44 0.08,12.61 1.46,25.6 -2.39,37.84 -1.55,5.31 -4.3,10.18 -7.63,14.58 8.79,5.33 16.88,11.89 26.23,16.29 6.92,3.28 14.67,1.24 21.85,0.04 28.9601,-5.41 58.55,-5.31 87.9,-4.64 25.23,1.09 50.5,2.12 75.55,5.52 18.5699,2.48 36.87,6.94 54.47,13.38 22.45,8.26 44.09,18.48 65.96,28.15 17.05,7.68 34.8301,13.76 53.0601,17.99 25.75,6 52.15,8.32 78.48,10.01 5.11,0.24 10.26,1.3 15.38,0.78 16.1,-6.84 31.77,-14.71 47.36,-22.65 9.87,-4.79 19.79,-9.89 30.61,-12.17 6.25,-1.33 13.1901,-1.21 18.79,2.2 5.89,3.61 9.49,9.9 11.88,16.21 4.64,12.56 3.13,26.59 -1.3101,38.98 5.9501,3.63 11.5601,9.06 12.63,16.27 1.2001,9.67 -3.76,18.59 -8.23,26.78 -18.3199,31.32 -39.63,60.75 -60.5699,90.33 -11.39,15.69 -22.5801,31.52 -34.1901,47.05 3.4501,1.2 3.97,4.92 2.9601,8.05 -4.4601,14.36 -14.88,26.15 -27.02,34.68 -9.4501,6.75 -19.8301,12.1 -30.4501,16.73 -10.59,4.34 -22.36,3.58 -33.45,2.12 -22.1,-3.4 -43.49,-10.06 -65.04,-15.81 -44.4199,-12.41 -89.77,-22.69 -135.96,-25.08 -28.39,-2.05 -57.0701,-0.08 -84.9,5.87 -22.14,4.54 -43.74,11.39 -64.86,19.37 -2.22,0.84 -4.41,1.71 -6.6,2.58 -1.65,0.64 -3.29,1.29 -4.91,1.96 -28.27,11.57 -55.66,25.16 -83.51,37.6801 -1.67,0.56 -2.76,1.93 -3.39,3.5099 -5.47,11.78 -11.2899,23.38 -17.23,34.92 -3.66,7.85 -8.79,15.06 -11.37,23.38 -3.46,14.27 -1.42,29.15 0.83,43.45 -3.4099,-1.54 -6.86,-2.99 -10.2799,-4.48 0.2899,-13.37 1.01,-26.8 3.5,-39.97 1.2899,-7.1 4.4199,-13.67 7.72,-20.02 5.58,-10.75 11.1,-21.7 13.73,-33.6 -9.08,3.22 -18.0699,6.77 -27.49,8.86 -18.36,4.39 -37.53,2.12 -55.77,-1.7 -30.41,-6.85 -60.03001,-20.43 -82.45001,-42.47 -13.7,-13.41 -23.9,-30.46 -28.53,-49.1 -3.1,-12.68 -3.86,-25.89 -2.43,-38.86 1.72,-17.52 7.39,-34.31 13.34,-50.77 9.92,-26.25 22.75,-52.16 42.63,-72.35 10.24,-10.21 22.61001,-18.88 36.82001,-22.34 6.8,-1.73 13.8201,-0.24 20.58,0.91 -14.4,3.02 -28.4999,8.52 -40.16,17.66 -7.52001,5.78 -13.14001,13.54 -19.12991,20.8 -18.05,22.34 -31.66,48.39 -38.69,76.28 -5.16,20.4 -7.82,41.93 -3.72,62.77 3.21,16.85 11.54,32.5699 23.27,45.04 12.71,13.55 28.58,23.72 45.09001,32.02 15.78,8.0099 33.3201,12.72 51.05,13.08 18.01,0.55 35.9199,-2.87 53.08,-8.12 20.22,-6.21 39.84,-14.24 59.17,-22.81 32.6899,-15.13 65.52,-30.67 100.62,-39.45 62.99,-16.68 129.5499,-14.19 193.16,-2.34 32.5,5.86 64.21,15.26 95.8199,24.68 8.9301,2.56 17.86,5.27 27.0699,6.67 15.9801,1.97 31.99,-3.26 45.76,-11.09 9.65,-5.64 18.6901,-12.53 26.11,-20.93 3.6801,-4.08 5.6901,-9.35 6.17,-14.79 -22.91,5.54 -46.71,3.9 -70.02,2.79 -45.59,-2.97 -90.87,-9.3701 -136.0399,-16.03 -31.7001,-4.85 -63.3301,-10.1 -94.9,-15.65 -24.48,-4.43 -49.54,-3.23 -74.16,-0.77 -48.1,4.99 -95.25,16.16 -142.9399,23.77 -11.92,1.79 -23.9,3.42 -35.9501,3.76 -8.52,0.24 -17.3199,-0.2 -25.26,-3.57 -6.6899,-2.73 -12.63,-7.66 -15.76,-14.25 -3.83,-7.68 -3.76,-16.56 -2.85,-24.89 1.53,-8.65 3.97,-17.1801 7.6801,-25.14 -3.0701,10.68 -4.4501,22.23 -0.88,32.98 3.13,9.34 8.8199,18.89 18.38,22.71 10.39,4.08 21.84,3.43 32.73,2.35 19.71,-2.15 39.14,-6.16 58.65,-9.57 24.39,-4.44 48.7999,-8.71 73.3199,-12.35 22.84,-3.38 45.88,-5.92 69,-5.75 24.1901,0.31 48.26,3.42 72.05,7.69 23.48,4.18 46.99,8.24 70.64,11.4 47.24,6.28 94.6699,11.45 142.2599,14.3701 11.65,0.52 23.3701,1.53 35.03,0.4 6.8,-0.94 14.49,-1.44 19.5801,-6.67 6.22,-6.25 11.09,-13.68 16.61,-20.53 21.5399,-27.31 40.5299,-56.53 58.61,-86.21 8.22,-14.06 16.88,-27.99 23.04,-43.11 2.46,-5.74 0.97,-12.3 -2.63,-17.19 -1.4401,2.24 -2.8201,4.52 -4.41,6.65 -0.89,-4.71 0.14,-9.45 0.3099,-14.18 0.41,-8.37 0.79,-16.86 -0.74,-25.15 -1.34,-6.96 -4.1,-13.98 -9.21,-19.03 -5.35,-4.64 -13.12,-3.12 -19.25,-1.13 -16.95,5.99 -31.5601,16.85 -47.74,24.45 -13.46,5.98 -27.76,9.67 -41.87,13.74 -13.77,3.45 -27.47,7.25 -41.4,9.98 15.72,-6.88 31.79,-13 47.3101,-20.35 -15.5601,-0.87 -31.0701,-2.31 -46.54,-4.06 -12.24,-1.4 -24.4501,-3.06 -36.5701,-5.24 -15.63,-3.18 -30.61,-8.87 -45.2799,-14.99 -20.7001,-8.69 -40.8401,-18.63 -61.38,-27.68 -13.6801,-5.95 -27.5801,-11.87 -42.36,-14.46 -28.0801,-5.09 -56.51,-8.18 -84.99,-9.99 -25.0601,-1.38 -50.28,-2.02 -75.28,0.6 -18.4301,2.2 -37.38,6.03 -53.13,16.36 l -0.85,0.11 c 0.09,-3.37 0.38,-6.73 0.6399,-10.09 -16.59,-13.4 -34.6799,-25.33 -54.7799,-32.74 -2.85,-0.78 -3.9701,-3.71 -5.5801,-5.84 2.27,-0.16 4.54,-0.35 6.8301,-0.4 4.01,0.67 7.96,1.74 11.72,3.29 3.1,1.35 6.13,2.88 9.1,4.51 1.8301,1.03 3.64,2.11 5.4501,3.2 8.08,-9.4 10.6399,-22 11.61,-34.03 0.76,-12 0.04,-24.13 -2.4,-35.91 -2.8101,-12.86 -10.89,-24.81 -22.6801,-30.99 -7.4199,-3.84 -16.23,-6.28 -24.48,-3.85 -4.59,1.23 -8.53,4 -12.11,7.02 6.83,8.09 10.5,18.23 13.55,28.22 1.99,6.71 3.7899,13.47 5.1799,20.33 0.42,2.13 0.72,4.28 0.99,6.45 0.4701,6.21 0.26,12.45 -0.06,18.67 -0.22,0.27 -0.66,0.82 -0.88,1.09 -0.15,4.17 -1.3,8.21 -2.64,12.14 l -0.06,0.15 c -5.7899,17.06 -19.1399,31.47 -36.08,37.83 -10.5,3.77 -22.48,6.08 -33.22,2.03 -9.6801,-3.59 -15.67,-13.01 -18.55,-22.5 -4.6699,-15.82 -4.0499,-32.74 -1.24,-48.84 3.27,-16.33 8.15,-32.64 17,-46.87 4.3201,-7 10.3,-12.84 17.36,-17.06 -7.75,-0.64 -15.53,0.06 -23.1599,1.45 -8.26,1.53 -16.88,2.35 -24.39,6.38 -10.11,5.2 -17.5701,14.33 -23.04,24.1 -8.69,15.43 -13.18,32.69 -18.38001,49.49 -5.25,14.94 -12.25,29.29 -20.36,42.87 1.87,-6.7 4.57,-13.13 6.41,-19.84 7.8,-23.74 12.99,-48.35 22.62001,-71.49 -9.97001,6.15 -19.78001,12.59 -30.20001,17.99 -16.92,9 -35.02,15.45 -52.25,23.78 -13.14,6.31 -25.72,13.81 -37.3199,22.64 -16.13,12.25 -32.39,24.32 -48.86,36.12 -14.59,10.24 -28.7599,21.34 -44.97,28.99 -3.78,1.91 -7.98,3.12 -11.31,5.83 -3.58,3.16 -6.27,7.18 -8.92,11.12 -8.15,12.68 -13.9,26.71 -19.09,40.81 -7.74,21.35 -13.54,43.34 -18.69,65.43 -9.45,40.47 -17.91,81.19 -24.34,122.25 -3.11,21.14 -6.17,42.4 -6.04,63.81 -3.09,-4.84 -5.44,-10.11 -7.7,-15.37 3.48,-41.09 10.21,-81.85 17.7,-122.39 6.56,-34.04 14,-68.02 25.06,-100.92 9.26,-27.12 21.33,-53.89 40.23,-75.73 7.1,-0.54 13.84,-3.23 19.96,-6.76 11.63,-6.72 22.38,-14.81 33.09,-22.89 18,-13.71 35.62,-27.91 53.95,-41.18 11.42,-8.15 23,-16.18 35.5601,-22.48 7.5099,-3.81 15.65,-6.15 23.37,-9.48 21.13,-8.89 41.3199,-19.95 60.59001,-32.35 4.77,-3.2 9.95,-5.99 13.77,-10.39 5.13,-5.82 11.72,-10.11 18.63,-13.52 12.17,-5.18 25.36,-7.85 38.5599,-8.24 6.0597,-0.2901 11.9798,1.1599 17.9297,2.1099 m 17.83,7.4 c 3.1801,1.9 6.4601,3.64 9.4601,5.82 2.51,-2.26 5.0599,-4.49 7.59,-6.73 -5.5901,-1.86 -11.6801,-1.47 -17.0501,0.91 m -19.23,4.14 c -7.02,1.97 -12.99,6.7 -17.37,12.43 -7.65,9.92 -11.08,22.27 -13.7999,34.3 -3.3401,15.94 -5,32.43 -2.9801,48.66 1.3101,7.98 3.05,16.71 9.13,22.54 5.4501,5.15 13.4501,6.15 20.62,5.25 22.7101,-3.21 43.5901,-20.85 47.87,-43.83 2.89,-15.02 0.08,-30.43 -3.86,-45 -3.2799,-11.05 -7.89,-22.51 -17.11,-29.95 -6.18,-5.12 -14.85,-6.62 -22.5,-4.4 z" /><path
     style="fill:#399b39;stroke:#399b39;stroke-width:0.294"
     inkscape:connector-curvature="0"
     id="path25"
     d="m 1112.8456,326.45915 c 5.37,-2.38 11.4601,-2.77 17.05,-0.91 -2.53,2.24 -5.08,4.47 -7.59,6.73 -3,-2.18 -6.28,-3.92 -9.46,-5.82 z" /><path
     style="fill:#3ea43e;stroke:#3ea43e;stroke-width:0.294"
     inkscape:connector-curvature="0"
     id="path27"
     d="m 1063.4457,328.36915 c 7.6299,-1.39 15.4099,-2.09 23.1599,-1.45 -7.0599,4.22 -13.0399,10.06 -17.36,17.06 -8.85,14.23 -13.73,30.54 -17,46.87 -2.8099,16.1 -3.4299,33.02 1.24,48.84 2.88,9.49 8.87,18.91 18.55,22.5 10.74,4.05 22.72,1.74 33.22,-2.03 16.9401,-6.36 30.29,-20.77 36.08,-37.83 l 0.2101,0.02 0.6699,0.09 c 1.61,2.13 2.7301,5.06 5.5801,5.84 20.1,7.41 38.1899,19.34 54.7799,32.74 -0.2599,3.36 -0.5499,6.72 -0.6399,10.09 l 0.85,-0.11 c -12.48,13.35 -21.59,30.41 -24.09,48.66 -0.77,6.65 -0.9501,13.68 1.6599,19.98 1.3101,3.17 4.11,6.27 7.8101,6.14 4.9099,-0.08 8.7,-3.67 12.25,-6.64 20.52,-17.81 40.09,-36.76 61.71,-53.29 7.13,-5.34 14.39,-10.68 22.59,-14.3 3.1801,-1.29 6.86,-2.55 10.26,-1.3 3.15,1.54 3.61,5.49 3.4,8.62 -0.54,7.41 -3.4399,14.38 -6.0699,21.25 -7.9601,19.54 -17.76,38.31 -24.89,58.19 -3.16,9.24 -6.1901,18.8 -6.0901,28.67 0.05,5.86 2.0901,12.24 7.16,15.66 6.25,4.27 14.24,4.48 21.52,3.85 13.6801,-1.5 25.9301,-8.71 36.67,-16.91 15.5299,-12.05 28.5399,-26.88 42.37,-40.75 5.5699,-5.47 11.24,-11.03 18.08,-14.91 4.02,-2.25 9.53,-3.5 13.5,-0.49 3.86,2.87 3.9,8.2 3.55,12.55 -1.0601,10.27 -4.3,20.19 -5.42,30.46 -0.6801,6.81 -0.52,14.41 3.85,20.08 3.4301,4.56 9.05,6.72 14.51,7.7 10.11,1.8 20.84,0.5 30.04,-4.17 10.4399,-4.94 18.5499,-13.38 26.49,-21.53 4.38,-4.36 8.5699,-9.3 14.39,-11.76 4.9399,-2.07 10.66,0.66 13.35,5.01 4.65,7.21 3.85,16.17 5.49,24.25 0.41,2.59 1.9,6.21 5.15,5.71 5.61,-0.98 9.87,-5.21 14.1799,-8.63 25.4,-21.98 46.7001,-48.9 75.5701,-66.7 15.47,1.75 30.98,3.19 46.54,4.06 -15.52,7.35 -31.5901,13.47 -47.3101,20.35 13.9301,-2.73 27.63,-6.53 41.4,-9.98 8.12,4.51 17.8199,4.6 26.8199,3.53 7.0801,-0.81 13.4701,-4.22 19.3401,-8.08 11.09,-7.19 21.48,-15.53 33.3099,-21.53 5.45,-2.71 11.99,-4.82 17.9301,-2.34 5.7,2.26 8.37,8.23 12.8999,11.98 2.16,1.91 5.25,1.47 7.9301,1.8 -0.04,-0.84 -0.12,-2.54 -0.16,-3.39 1.53,8.29 1.15,16.78 0.74,25.15 -0.1699,4.73 -1.2,9.47 -0.3099,14.18 1.59,-2.13 2.97,-4.41 4.41,-6.65 3.6,4.89 5.09,11.45 2.63,17.19 -6.16,15.1201 -14.8201,29.05 -23.04,43.11 -18.0801,29.68 -37.0701,58.9 -58.61,86.21 -5.52,6.85 -10.39,14.28 -16.61,20.53 -5.0901,5.23 -12.78,5.73 -19.5801,6.67 -11.6599,1.13 -23.38,0.12 -35.03,-0.4 -47.59,-2.92 -95.0199,-8.09 -142.2599,-14.3701 -23.65,-3.16 -47.16,-7.22 -70.64,-11.4 -23.79,-4.27 -47.86,-7.38 -72.05,-7.69 -23.12,-0.17 -46.16,2.37 -69,5.75 -24.52,3.64 -48.9299,7.91 -73.3199,12.35 -19.51,3.41 -38.9401,7.42 -58.65,9.57 -10.89,1.08 -22.34,1.73 -32.73,-2.35 -9.5601,-3.82 -15.25,-13.37 -18.38,-22.71 -3.5701,-10.75 -2.1901,-22.3 0.88,-32.98 -3.7101,7.96 -6.15,16.49 -7.6801,25.14 -1.09,0.44 -2.52,0.61 -2.91,1.94 -3.6799,7.77 -6.9399,16.18 -6.2999,24.95 0.12,7.69 4.14,15.28 10.49,19.62 11.0699,6.41 24.29,5.4301 36.6,5.41 9.08,0.33 18.11,-0.86 27.13,-1.71 25.73,-2.66 51.29,-6.66 76.89,-10.29 32.9299,-4.26 65.77,-9.54 98.95,-11.39 12.28,-1.25 24.65,-0.58 36.98,-0.75 32.3301,-0.55 65.39,3.73 95.0801,17.13 9.0599,3.94 16.73,10.41 25.6899,14.54 -0.4099,0.21 -1.24,0.63 -1.6499,0.85 -63.6101,-11.85 -130.17,-14.34 -193.16,2.34 -35.1,8.78 -67.9301,24.32 -100.62,39.45 -19.3301,8.57 -38.9501,16.6 -59.17,22.81 -17.16,5.25 -35.0699,8.67 -53.08,8.12 -17.73,-0.36 -35.27,-5.07 -51.05,-13.08 -16.51001,-8.3 -32.38001,-18.47 -45.09001,-32.02 -11.73,-12.47 -20.06,-28.19 -23.27,-45.04 -4.1,-20.84 -1.44,-42.3701 3.72,-62.77 7.03,-27.89 20.64,-53.94 38.69,-76.28 5.99,-7.26 11.61,-15.02 19.12991,-20.8 11.66,-9.14 25.76,-14.64 40.16,-17.66 -6.7599,-1.15 -13.78,-2.64 -20.58,-0.91 -14.21,3.46 -26.58001,12.13 -36.82001,22.34 -19.88,20.19 -32.71,46.1 -42.63,72.35 -5.95,16.46 -11.62,33.25 -13.34,50.77 -1.43,12.97 -0.67,26.18 2.43,38.86 -0.23,0.44 -0.68,1.34 -0.91,1.79 -0.4,-1.02 -0.8,-2.03 -1.18,-3.03 -10.82,-4.2 -21.59,-9.01 -30.86,-16.1 -11.87,-8.55 -21.42,-20.4 -27.1,-33.9 -5.48,-12.77 -7.8,-26.79 -7.4,-40.65 -0.6,-30.24 5.3,-60.55 16.48,-88.63 11.75,-30.42 30.19,-57.9 51.85,-82.13 5.06,-4.96 9.68,-10.35 14.61,-15.44 6.2,-5.09 11.52,-11.13 17.79,-16.15 5.52,-4.55 10.66,-9.68 16.89,-13.27 -1.84,6.71 -4.54,13.14 -6.41,19.84 8.11,-13.58 15.11,-27.93 20.36,-42.87 5.20001,-16.8 9.69001,-34.06 18.38001,-49.49 5.47,-9.77 12.93,-18.9 23.04,-24.1 7.5099,-4.0299 16.1298,-4.8499 24.3899,-6.3799 m 552.7799,307.3 c -10.1699,1.34 -21.0599,4.25 -28.0299,12.3 -6.02,6.98 -7.3301,16.4 -9.75,24.97 -2.9,11.21 -6.5601,22.21 -9.52,33.4 5.0399,-4.92 9.1799,-10.64 13.0699,-16.5 l -0.47,1.75 c 9.45,-8.58 9.67,-22.49 16.83,-32.5 4.17,-5.94 11.75,-8.32 18.75,-8.02 8.76,0.38 17.55,2.42 25.37,6.44 3.1901,1.55 5.63,4.47 9.1901,5.29 7.7,5.02 14.52,11.53 22.85,15.5 -1.1,-3.7 -3.87,-6.47 -6.29,-9.34 -5.61,-6.47 -12.35,-11.83 -19.27,-16.83 -5.1899,-3.79 -8.9099,-9.12 -13.62,-13.41 -5.2401,-4.56 -12.7201,-3.89 -19.1101,-3.05 m 2.28,22.73 c -10.26,3.35 -18.27,12.47 -20.87,22.86 -1.33,5.08 -0.23,10.76 3.39,14.66 9.1,10.35 26.02,11.6801 37.3199,4.2401 4.9401,-3.68 5.3301,-10.57 4.8301,-16.2 -1.04,-8.55 -4.51,-17.27 -11.0701,-23.07 -3.6598,-3.3301 -9.0099,-4.1801 -13.5999,-2.4901 z" /><path
     style="fill:#f3f3f3;stroke:#f3f3f3;stroke-width:0.294"
     inkscape:connector-curvature="0"
     id="path29"
     d="m 1137.3656,328.25915 c 8.25,-2.43 17.0601,0.01 24.48,3.85 11.79,6.18 19.87,18.13 22.6801,30.99 2.4399,11.78 3.16,23.91 2.4,35.91 -0.9701,12.03 -3.53,24.63 -11.61,34.03 -1.8101,-1.09 -3.62,-2.17 -5.4501,-3.2 11.85,-11.23 13.14,-30.89 5.01,-44.61 -3.62,-6.13 -10.46,-11.16 -17.88,-10.06 -5.4399,0.71 -9.71,4.54 -13.01,8.66 -1.39,-6.86 -3.1899,-13.62 -5.1799,-20.33 -3.05,-9.99 -6.7201,-20.13 -13.55,-28.22 3.5799,-3.02 7.5199,-5.79 12.1099,-7.02 z" /><path
     style="fill:#f3f3f3;stroke:#f3f3f3;stroke-width:0.294"
     inkscape:connector-curvature="0"
     id="path31"
     d="m 1093.6156,330.59915 c 7.65,-2.22 16.3201,-0.72 22.5,4.4 9.22,7.44 13.8301,18.9 17.11,29.95 3.9401,14.57 6.75,29.98 3.86,45 -4.2799,22.98 -25.1599,40.62 -47.87,43.83 -7.1699,0.9 -15.1699,-0.1 -20.62,-5.25 -6.08,-5.83 -7.8199,-14.56 -9.13,-22.54 -2.0199,-16.23 -0.36,-32.72 2.9801,-48.66 2.72,-12.03 6.1499,-24.38 13.7999,-34.3 4.38,-5.73 10.35,-10.46 17.37,-12.43 m -1.21,40.7 c -6.67,1.72 -11.96,6.75 -15.48,12.5 -9.17,15.63 -8.78,36.78 1.6499,51.72 4.4401,6.18 11.6101,11.09 19.5,10.63 7.9901,-0.21 14.79,-5.75 18.9801,-12.21 7.5699,-11.99 8.8999,-27.36 4.76,-40.79 -2.4801,-7.79 -7.0701,-15.33 -14.2401,-19.58 -4.5,-2.76 -10.0699,-3.49 -15.1699,-2.27 z" /><path
     style="fill:#399b39;stroke:#399b39;stroke-width:0.294"
     inkscape:connector-curvature="0"
     id="path33"
     d="m 976.10559,377.86915 c 10.42,-5.4 20.23,-11.84 30.20001,-17.99 -9.63001,23.14 -14.82001,47.75 -22.62001,71.49 -6.23,3.59 -11.37,8.72 -16.89,13.27 -6.27,5.02 -11.59,11.06 -17.79,16.15 -4.93,5.09 -9.55,10.48 -14.61,15.44 -21.66,24.23 -40.1,51.71 -51.85,82.13 -11.18,28.08 -17.08,58.39 -16.48,88.63 -0.4,13.86 1.92,27.88 7.4,40.65 5.68,13.5 15.23,25.35 27.1,33.9 9.27,7.09 20.04,11.9 30.86,16.1 0.38,1 0.78,2.01 1.18,3.03 0.23,-0.45 0.6801,-1.35 0.91,-1.79 4.63,18.64 14.83,35.69 28.53,49.1 22.42,22.04 52.04001,35.62 82.45001,42.47 18.24,3.82 37.41,6.09 55.77,1.7 9.42,-2.09 18.41,-5.64 27.49,-8.86 -2.63,11.9 -8.15,22.85 -13.73,33.6 -3.3,6.35 -6.4301,12.92 -7.72,20.02 -2.49,13.17 -3.2101,26.6 -3.5,39.97 -25.05,-10.44 -50.8301,-19.24 -77.1,-26.02 -42.67001,-12.2 -86.62001,-19.42 -130.70001,-24.1 -26.96,-3.07 -53.75,-7.72 -80.03,-14.5 -29.39,-7.65 -58.39,-17.94 -84.56,-33.56 -8.4,-4.89 -16.0601,-10.88 -23.79,-16.73 -0.8,-1.1 -1.58,-2.2 -2.31,-3.32 -0.13,-21.41 2.93,-42.67 6.04,-63.81 6.4301,-41.06 14.89,-81.78 24.34,-122.25 5.15,-22.09 10.95,-44.08 18.69,-65.43 5.19,-14.1 10.94,-28.13 19.09,-40.81 2.65,-3.94 5.34,-7.96 8.92,-11.12 3.33,-2.71 7.53,-3.92 11.31,-5.83 16.21,-7.65 30.38,-18.75 44.97,-28.99 16.47,-11.8 32.73,-23.87 48.86,-36.12 11.6,-8.83 24.18,-16.33 37.3199,-22.64 17.2301,-8.33 35.3301,-14.78 52.2501,-23.78 z" /><path
     style="fill:#48829a;stroke:#48829a;stroke-width:0.294"
     inkscape:connector-curvature="0"
     id="path35"
     d="m 1092.4056,371.29915 c 5.1,-1.22 10.6699,-0.49 15.1699,2.27 7.17,4.25 11.76,11.79 14.2401,19.58 4.1399,13.43 2.8099,28.8 -4.76,40.79 -4.1901,6.46 -10.99,12 -18.9801,12.21 -7.8899,0.46 -15.0599,-4.45 -19.5,-10.63 -10.4299,-14.94 -10.8199,-36.09 -1.6499,-51.72 3.5201,-5.75 8.81,-10.78 15.48,-12.5 m 0.97,5.97 c -8.15,3.1 -13.3099,11.45 -15.3,19.64 -2.34,9.14 0.92,18.3 3.39,27.02 1.0601,3.35 2.7101,7.15 6.36,8.31 7.0801,2.23 16.2201,3.14 21.5901,-3.11 6.13,-6.77 8.6699,-16.51 7.22,-25.47 -1.16,-7.5 -2.34,-15.69 -7.76,-21.45 -3.9801,-3.87 -10.0001,-6.14 -15.5001,-4.94 z" /><path
     style="fill:#48829a;stroke:#48829a;stroke-width:0.294"
     inkscape:connector-curvature="0"
     id="path37"
     d="m 1143.9856,383.82915 c 3.3,-4.12 7.5701,-7.95 13.01,-8.66 7.42,-1.1 14.26,3.93 17.88,10.06 8.13,13.72 6.84,33.38 -5.01,44.61 -2.97,-1.63 -6,-3.16 -9.1,-4.51 3.12,-1.67 6.6801,-3.02 8.86,-5.97 7.14,-9.33 5.41,-22.49 0.5701,-32.44 -2.8101,-4.96 -9.04,-8.1 -14.66,-6.6 -4.63,1.88 -7.25,6.47 -10.5601,9.96 -0.2701,-2.17 -0.57,-4.32 -0.99,-6.45 z" /><path
     style="fill:#5d97b0;stroke:#5d97b0;stroke-width:0.294"
     inkscape:connector-curvature="0"
     id="path39"
     d="m 1093.3756,377.26915 c 5.5,-1.2 11.52,1.07 15.5,4.94 5.42,5.76 6.6,13.95 7.76,21.45 1.45,8.96 -1.09,18.7 -7.22,25.47 -5.37,6.25 -14.51,5.34 -21.5901,3.11 -3.6499,-1.16 -5.2999,-4.96 -6.36,-8.31 -2.47,-8.72 -5.73,-17.88 -3.39,-27.02 1.9902,-8.19 7.1501,-16.54 15.3001,-19.64 m -5.3001,15.47 c -3.1299,1.88 -4.58,5.41 -4.33,8.97 -1.77,7.52 -0.63,16.17 4.4301,22.24 2.83,3.48 7.6599,5.6 12.08,4.17 5.54,-1.75 8.95,-7.22 10.4,-12.57 1.73,-7.01 1.03,-14.93 -3.05,-21.02 -2.34,-3.49 -6.1699,-6.34 -10.52,-6.22 -3.53,0.01 -6.57,2.09 -9.0101,4.43 z" /><path
     style="fill:#5d97b0;stroke:#5d97b0;stroke-width:0.294"
     inkscape:connector-curvature="0"
     id="path41"
     d="m 1155.5356,380.31915 c 5.62,-1.5 11.85,1.64 14.66,6.6 4.84,9.95 6.5699,23.11 -0.5701,32.44 -2.1799,2.95 -5.74,4.3 -8.86,5.97 -3.76,-1.55 -7.71,-2.62 -11.72,-3.29 -1.98,-4.15 -3.4701,-8.53 -4.13,-13.09 0.3199,-6.22 0.53,-12.46 0.06,-18.67 3.3102,-3.49 5.9302,-8.08 10.5602,-9.96 m -4.06,11.74 c -3.59,1.65 -4.8199,6.4 -2.63,9.65 l -0.8999,-0.75 c -0.04,4.13 -0.09,8.48 1.84,12.26 1.6899,3.6 5.0599,7.05 9.3199,6.96 3.2001,0.09 5.98,-2.04 7.8,-4.51 3.4399,-4.83 4.01,-11.27 2.5699,-16.9 -1.2999,-4.45 -4.39,-9.19 -9.3199,-9.9 -3.32,-0.61 -6.01,1.65 -8.68,3.19 z" /><path
     style="fill:#2a2929;stroke:#2a2929;stroke-width:0.294"
     inkscape:connector-curvature="0"
     id="path43"
     d="m 1088.0755,392.73915 c 2.4401,-2.34 5.4801,-4.42 9.01,-4.43 4.3501,-0.12 8.1801,2.73 10.52,6.22 4.0801,6.09 4.78,14.01 3.05,21.02 -1.4501,5.35 -4.86,10.82 -10.4,12.57 -4.42,1.43 -9.25,-0.69 -12.08,-4.17 -5.0601,-6.07 -6.2001,-14.72 -4.4301,-22.24 1.15,2.75 3.1,5.72 6.42,5.87 4.47,0.26 7.8099,-4.48 7.01,-8.68 -0.2898,-4.43 -4.9198,-7.35 -9.0999,-6.16 z" /><path
     style="fill:#2a2929;stroke:#2a2929;stroke-width:0.294"
     inkscape:connector-curvature="0"
     id="path45"
     d="m 1151.4756,392.05915 c 2.67,-1.54 5.36,-3.8 8.6801,-3.19 4.9299,0.71 8.02,5.45 9.3199,9.9 1.4401,5.63 0.87,12.07 -2.5699,16.9 -1.8201,2.47 -4.6,4.6 -7.8,4.51 -4.26,0.09 -7.63,-3.36 -9.3199,-6.96 -1.9301,-3.78 -1.88,-8.13 -1.84,-12.26 l 0.8999,0.75 c 2.02,2.63 6.1801,2.94 8.11,0.04 3.3199,-3.93 -0.2001,-10.77 -5.4801,-9.69 z" /><path
     style="fill:#ffffff;stroke:#ffffff;stroke-width:0.294"
     inkscape:connector-curvature="0"
     id="path47"
     d="m 1083.7456,401.70915 c -0.25,-3.56 1.2001,-7.09 4.33,-8.97 4.1801,-1.19 8.8101,1.73 9.1001,6.16 0.7999,4.2 -2.54,8.94 -7.01,8.68 -3.3201,-0.15 -5.2701,-3.12 -6.4201,-5.87 z" /><path
     style="fill:#ffffff;stroke:#ffffff;stroke-width:0.294"
     inkscape:connector-curvature="0"
     id="path49"
     d="m 1148.8456,401.70915 c -2.1899,-3.25 -0.96,-8 2.63,-9.65 5.28,-1.08 8.8,5.76 5.48,9.69 -1.93,2.9 -6.09,2.59 -8.11,-0.04 z" /><path
     style="fill:#488299;stroke:#488299;stroke-width:0.294"
     inkscape:connector-curvature="0"
     id="path51"
     d="m 1144.0356,410.03915 c 0.22,-0.27 0.66,-0.82 0.88,-1.09 0.6599,4.56 2.15,8.94 4.13,13.09 -2.29,0.05 -4.5601,0.24 -6.8301,0.4 l -0.6699,-0.09 c -0.04,-0.04 -0.11,-0.13 -0.15,-0.17 1.34,-3.93 2.49,-7.97 2.64,-12.14 z" /><path
     style="fill:#c9e4c1;stroke:#c9e4c1;stroke-width:0.294"
     inkscape:connector-curvature="0"
     id="path53"
     d="m 1141.3956,422.17915 c 0.04,0.04 0.11,0.13 0.15,0.17 l -0.2101,-0.02 0.06,-0.15 z" /><path
     style="fill:#6cc36c;stroke:#6cc36c;stroke-width:0.294"
     inkscape:connector-curvature="0"
     id="path55"
     d="m 1255.9156,454.63915 c 25,-2.62 50.22,-1.98 75.28,-0.6 28.48,1.81 56.9099,4.9 84.99,9.99 14.7799,2.59 28.6799,8.51 42.36,14.46 20.5399,9.05 40.6799,18.99 61.38,27.68 14.6699,6.12 29.6499,11.81 45.2799,14.99 12.12,2.18 24.3301,3.84 36.5701,5.24 -28.87,17.8 -50.17,44.72 -75.5701,66.7 -4.3099,3.42 -8.5699,7.65 -14.1799,8.63 -3.25,0.5 -4.74,-3.1201 -5.15,-5.71 -1.64,-8.08 -0.84,-17.04 -5.49,-24.25 -2.6899,-4.35 -8.41,-7.08 -13.35,-5.01 -5.8201,2.46 -10.01,7.4 -14.39,11.76 -7.9401,8.15 -16.05,16.59 -26.49,21.53 -9.2001,4.67 -19.9301,5.97 -30.04,4.17 -5.46,-0.98 -11.08,-3.14 -14.51,-7.7 -4.37,-5.67 -4.53,-13.27 -3.85,-20.08 1.12,-10.27 4.36,-20.19 5.42,-30.46 0.35,-4.35 0.3099,-9.68 -3.55,-12.55 -3.97,-3.01 -9.48,-1.76 -13.5,0.49 -6.84,3.88 -12.51,9.44 -18.08,14.91 -13.8301,13.87 -26.8401,28.7 -42.37,40.75 -10.74,8.2 -22.99,15.41 -36.67,16.91 -7.28,0.63 -15.27,0.42 -21.52,-3.85 -5.0699,-3.42 -7.11,-9.8 -7.16,-15.66 -0.1,-9.8701 2.9301,-19.43 6.0901,-28.67 7.13,-19.88 16.9299,-38.65 24.89,-58.19 2.63,-6.87 5.5299,-13.84 6.0699,-21.25 0.21,-3.13 -0.25,-7.08 -3.4,-8.62 -3.4,-1.25 -7.08,0.01 -10.26,1.3 -8.2,3.62 -15.46,8.96 -22.59,14.3 -21.62,16.53 -41.1899,35.48 -61.71,53.29 -3.55,2.97 -7.3401,6.56 -12.25,6.64 -3.7001,0.13 -6.5,-2.97 -7.8101,-6.14 -2.61,-6.3 -2.4299,-13.33 -1.6599,-19.98 2.5,-18.25 11.61,-35.31 24.09,-48.66 15.75,-10.33 34.7,-14.16 53.13,-16.36 z" /><path
     style="fill:#6cc36c;stroke:#6cc36c;stroke-width:0.294"
     inkscape:connector-curvature="0"
     id="path57"
     d="m 1732.0156,502.63915 c 6.13,-1.99 13.9,-3.51 19.25,1.13 5.11,5.05 7.87,12.07 9.21,19.03 0.04,0.85 0.12,2.55 0.16,3.39 -2.6801,-0.33 -5.77,0.11 -7.9301,-1.8 -4.5299,-3.75 -7.2,-9.72 -12.8999,-11.98 -5.9401,-2.48 -12.4801,-0.37 -17.9301,2.34 -11.83,6 -22.22,14.34 -33.3099,21.53 -5.87,3.86 -12.26,7.27 -19.3401,8.08 -9,1.07 -18.7,0.98 -26.8199,-3.53 14.11,-4.07 28.41,-7.76 41.87,-13.74 16.1799,-7.6 30.7901,-18.46 47.74,-24.45 z" /><path
     style="fill:#008300;stroke:#008300;stroke-width:0.294"
     inkscape:connector-curvature="0"
     id="path59"
     d="m 1616.2256,635.66915 c 6.39,-0.84 13.87,-1.5099 19.11,3.05 4.7101,4.29 8.4301,9.62 13.62,13.41 6.92,5 13.66,10.36 19.27,16.83 2.42,2.87 5.1901,5.64 6.29,9.34 -8.33,-3.97 -15.15,-10.48 -22.85,-15.5 -6.4301,-4.63 -11.27,-11.14 -17.97,-15.38 -7.77,-4.84 -17.4901,-3.93 -26.02,-2.0699 -8.4,2.0099 -14.16,9.44 -17.02,17.21 -3.8101,8.84 -3.03,19.17 -8.66,27.28 -3.89,5.86 -8.03,11.58 -13.0699,16.5 2.96,-11.19 6.62,-22.19 9.52,-33.4 2.4199,-8.57 3.73,-17.99 9.75,-24.97 6.9699,-8.0501 17.8599,-10.9601 28.0299,-12.3001 z" /><path
     style="fill:#6cc36c;stroke:#6cc36c;stroke-width:0.294"
     inkscape:connector-curvature="0"
     id="path61"
     d="m 1607.6756,645.34915 c 8.5299,-1.86 18.25,-2.77 26.02,2.0699 6.7,4.2401 11.5399,10.75 17.97,15.38 -3.5601,-0.8199 -6,-3.74 -9.1901,-5.29 -7.8199,-4.02 -16.61,-6.06 -25.37,-6.44 -7,-0.3 -14.58,2.08 -18.75,8.02 -7.1599,10.01 -7.38,23.92 -16.83,32.5 l 0.47,-1.75 c 5.63,-8.11 4.85,-18.44 8.66,-27.28 2.8601,-7.7699 8.6201,-15.1999 17.0201,-17.2099 z" /><path
     style="fill:#008300;stroke:#008300;stroke-width:0.294"
     inkscape:connector-curvature="0"
     id="path63"
     d="m 1618.5056,658.39915 c 4.59,-1.69 9.9401,-0.84 13.6,2.49 6.5601,5.8 10.03,14.52 11.0701,23.07 0.5,5.63 0.11,12.52 -4.8301,16.2 -11.2999,7.44 -28.22,6.11 -37.3199,-4.2401 -3.62,-3.9 -4.72,-9.58 -3.39,-14.66 2.5999,-10.3899 10.6099,-19.5099 20.8699,-22.8599 m 13.98,10.9 c -2.5599,5.42 -6.2999,11.04 -12.3199,12.9 -5.65,1.7 -11.29,-0.93 -16.35,-3.2 -0.65,6.62 1.2799,14.27 7.3199,17.9 5.74,2.98 13,4.23 19.01,1.26 4.02,-1.88 7.3,-5.65 7.73,-10.19 0.62,-6.53 -0.91,-13.69 -5.39,-18.67 z" /><path
     style="fill:#399b39;stroke:#399b39;stroke-width:0.294"
     inkscape:connector-curvature="0"
     id="path65"
     d="m 1632.4856,669.29915 c 4.48,4.98 6.01,12.14 5.39,18.67 -0.4299,4.54 -3.71,8.31 -7.73,10.19 -6.01,2.97 -13.27,1.72 -19.01,-1.26 -6.04,-3.63 -7.97,-11.28 -7.3199,-17.9 5.0599,2.27 10.7,4.9 16.35,3.2 6.0199,-1.86 9.7599,-7.48 12.3199,-12.9 z" /><path
     style="fill:#399b39;stroke:#399b39;stroke-width:0.294"
     inkscape:connector-curvature="0"
     id="path67"
     d="m 1068.3356,692.03915 c 0.39,-1.33 1.8201,-1.5 2.91,-1.94 -0.91,8.33 -0.98,17.21 2.85,24.89 3.13,6.59 9.0701,11.52 15.76,14.25 7.9401,3.37 16.74,3.81 25.26,3.57 12.05,-0.34 24.03,-1.97 35.9501,-3.76 47.6899,-7.61 94.84,-18.78 142.9399,-23.77 24.62,-2.46 49.6801,-3.66 74.16,0.77 31.5699,5.55 63.2,10.8 94.9,15.65 45.1699,6.66 90.45,13.06 136.0399,16.03 23.3101,1.11 47.11,2.75 70.02,-2.79 -0.48,5.44 -2.49,10.71 -6.17,14.79 -7.4199,8.4 -16.46,15.29 -26.11,20.93 -13.77,7.83 -29.7799,13.06 -45.76,11.09 -9.21,-1.4 -18.1399,-4.11 -27.0699,-6.67 -31.61,-9.42 -63.3199,-18.82 -95.8199,-24.68 0.4099,-0.22 1.24,-0.64 1.6499,-0.85 -8.96,-4.13 -16.63,-10.6 -25.6899,-14.54 -29.6901,-13.4 -62.75,-17.68 -95.0801,-17.13 -12.33,0.17 -24.7,-0.5 -36.98,0.75 -33.1799,1.85 -66.02,7.13 -98.95,11.39 -25.6,3.63 -51.16,7.63 -76.89,10.29 -9.02,0.85 -18.05,2.04 -27.13,1.71 -12.3099,0.02 -25.53,1 -36.6,-5.41 -6.35,-4.34 -10.37,-11.93 -10.49,-19.62 -0.64,-8.77 2.62,-17.18 6.3,-24.95 z" /><path
     style="fill:#a73c3c;stroke:#a73c3c;stroke-width:0.294"
     inkscape:connector-curvature="0"
     id="path73"
     d="m 691.30559,924.98915 c -0.37,-47.2599 -1.09,-94.77 5.31,-141.71 2.26,5.26 4.61,10.53 7.7,15.37 0.73,1.12 1.51,2.22 2.31,3.32 9.37,15.13 23.1,27.32 38.49,36.1 17.9,9.52 37.72,14.56 57.28,19.43 40.12,9.48 80.85,16.08 121.37,23.58 7.81,1.56 15.68,2.83 23.48,4.42 17.03,3.6 34.07,7.37 50.63,12.78 18.51001,5.99 36.60001,13.99 52.16001,25.83 11.96,8.9 22.02,20.07 31.16,31.78 11.08,14.33 22.0699,28.72 33.08,43.1 1.15,1.53005 2.3099,3.10005 3.48,4.65005 7.0601,9.26 14.01,18.58 21.0699,27.84 3.63,5.02 7.4401,9.9 11.1901,14.84 3.5599,7.11 7.05,14.24 10.46,21.42 -1.4199,1.19 -2.83,2.38 -4.23,3.57 -8.22,-14.41 -15.87,-29.26 -26.1799,-42.35 -24.75,-29.64005 -45.8,-62.39005 -73.2001,-89.77005 -11.45,-11.17 -23.9,-22.03 -39.08,-27.73 -18.15001,-6.82 -36.95001,-11.72 -55.78001,-16.27 -41.14,-9.87 -83.07,-15.74 -124.76,-22.66 -23.72,-4.03 -47.44,-8.68 -70.24,-16.51 -20.41,-7.37 -40.28,-17.66 -55.66,-33.24 -3.42,-3.27 -6.06,-7.27 -9.7401,-10.27 -2.62,16.67 -2.8,33.61 -3.34,50.45 -0.46,34.34 1.17,68.64 2.24,102.95 1.97,52.04005 4.66,104.05005 7.66,156.04005 1.39,22.03 2.46,44.0699 3.52,66.12 1.7,43.15 -0.91,86.33 -4.74,129.3 2.92,-0.09 6.18,-0.8401 8.76,0.97 5.97,3.78 9.58,10.16 12.74,16.28 7.46,16.1599 11.76,33.5199 16.26,50.6799 5.13,20.92 8.75,42.8201 4.98,64.29 -0.76,5.2 -3.13,9.98 -4.24,15.09 4.38,4.12 10.05,6.52 15.07,9.77 17.14,9.54 35.32,17.84 54.78,21.21 11.46,2.27 23.3,1.8101 34.79,-0.05 20.83,-3.0701 41.2,-8.6 61.47,-14.2201 23.26,-6.6599 46.42,-13.6499 69.73,-20.1599 16.95,-4.4301 34.09001,-8.17 50.78001,-13.5601 40.32,-12.6699 79.22,-29.33 118.1,-45.78 19.39,-8.3899 38.77,-16.83 57.6699,-26.2699 10.79,-5.2201 21.3501,-10.9801 31.3301,-17.63 6.73,-4.54 14.1599,-9.4 17.38,-17.2001 0.6699,-4.76 -1.16,-9.33 -2.37,-13.83 -10.6901,-36.6901 -23.3501,-72.77 -36.3101,-108.71 -14.75,-40.4401 -30.64,-80.4801 -48.48,-119.66 1.14,-1.36 2.29,-2.71 3.46,-4.0601 0.67,1.5 1.37,3.02 2.0701,4.54 0.45,1.01 0.9099,2.03 1.39,3.0699 0.7899,1.78 1.59,3.5601 2.3999,5.3601 0.6901,1.59 1.39,3.2 2.1101,4.8099 33.2799,75.8201 63.48,153.13 86.9399,232.59 -0.96,1.02 -1.89,2.0701 -2.85,3.1001 -1.52,1.5599 -3.1,3.0699 -4.72,4.5299 -7,6.14 -14.8401,11.1901 -22.8,15.9601 -15.7,8.59 -32.02,15.97 -48.2,23.58 -39.39,18.03 -79.2001,35.26 -119.99,49.92 -16.6901,5.86 -33.53,11.3999 -50.8,15.2799 -19.40001,4.39 -38.46001,10.17 -57.17001,16.87 -28.91,10.51 -58.28,19.8 -88.31,26.5601 -17.79,4.49 -36.4,5.9399 -54.6201,3.52 -20.8799,-2.8101 -41.03,-10.42 -58.86,-21.59 -8.16,-5.2201 -16.2,-10.8501 -23,-17.78 6.43,-9.6801 7.28,-21.63 7.51,-32.91 -0.12,-16.6799 -2.23,-33.35 -6.25,-49.54 -2.58,-11.76 -6.28,-23.24 -10.48,-34.5 -2.96,-7.84 -6.12,-16.1399 -12.79,-21.62 -3.2599,-1.85 -7.49,-2.6499 -10.72,-0.2899 -0.73,0.48 -2.19,1.4299 -2.92,1.9099 1.14,-26.6699 2.5699,-53.3199 3.59,-79.99 1.57,-25.35 -0.23,-50.74 -1.31,-76.0699 -4.7397,-82.2398 -9.7897,-164.4798 -11.7597,-246.84985 z" /><path
     style="fill:#646464;stroke:#646464;stroke-width:0.294"
     inkscape:connector-curvature="0"
     id="path75"
     d="m 706.62559,801.96915 c 7.73,5.85 15.39,11.84 23.79,16.73 26.17,15.62 55.17,25.91 84.56,33.56 26.28,6.78 53.0699,11.43 80.03,14.5 44.08,4.68 88.03,11.9 130.70001,24.1 -15.54,1.32 -30.49001,-5.19 -45.98001,-4.3799 -8.77,-1.41 -17.56,-2.7401 -26.39,-3.6 -9.85,-0.73 -19.69,-1.79 -29.57,-1.8 -40.52,-7.5 -81.25,-14.1 -121.37,-23.58 -19.56,-4.87 -39.38,-9.91 -57.28,-19.43 -15.39,-8.7801 -29.12,-20.9701 -38.49,-36.1001 z" /><path
     style="fill:#1a1a1a;stroke:#c24141;stroke-width:0.30321443"
     inkscape:connector-curvature="0"
     id="path77"
     d="m 694.67718,804.06492 c 3.81593,3.07742 6.55325,7.18065 10.09959,10.53502 15.94764,15.98206 36.551,26.5376 57.71429,34.09777 23.6415,8.03207 48.23695,12.80205 72.83239,16.93605 -9.91283,1.38483 -18.94429,5.97019 -28.13129,9.62205 -9.16627,3.72366 -17.73113,8.79115 -25.51831,14.8434 -3.84692,3.10818 -7.01986,7.24219 -8.44043,11.99167 -1.73163,7.59096 3.55659,14.64848 9.44624,18.88506 8.47152,5.35471 18.98578,5.06738 28.61864,4.23647 4.58313,-0.32815 9.67435,-1.47716 13.82198,1.12839 3.57733,7.77559 0.0622,16.72061 2.92409,24.67061 0.871,2.55426 1.91827,5.03671 2.91372,7.56018 -9.1248,17.03861 -13.17911,36.24167 -14.82779,55.31141 -1.91829,22.9782 -0.0414,46.0998 3.77434,68.801 3.58769,20.9467 8.53376,41.7296 15.93728,61.7021 5.3919,14.2178 11.84147,28.3635 21.85801,40.0268 5.91037,6.7603 13.84271,12.6995 23.16452,13.3457 9.0211,0.5951 17.58596,-3.6006 24.33622,-9.2219 20.74853,1.4156 39.6721,11.1095 57.18548,21.5214 20.92478,13.4073 41.82875,27.1839 64.93115,36.7342 -19.7117,5.5802 -39.27806,12.0121 -57.64169,21.1316 -9.79879,5.211 -19.44203,11.1403 -26.88702,19.4492 -4.59351,4.7391 -8.16047,10.4839 -9.80915,16.8848 -3.17294,10.3195 -0.0518,21.3469 4.79051,30.6409 6.84359,13.9304 18.12515,25.0091 29.4378,35.4414 8.63745,6.7703 17.59633,13.356 27.67507,17.9107 28.64978,14.6279 61.50948,18.8234 93.39428,18.372 22.9366,-1.2823 45.9039,-3.8673 68.2389,-9.3552 21.381,-5.0367 42.4303,-11.5505 62.7433,-19.8802 14.4443,-6.1446 28.8053,-13.0995 40.8335,-23.296 3.2662,-2.78 6.5117,-5.6009 10.006,-8.1141 -3.339,8.0013 -11.0429,12.9867 -18.0214,17.6439 -10.3484,6.8215 -21.2981,12.7301 -32.4864,18.0849 -19.5975,9.6835 -39.6927,18.3415 -59.7983,26.9478 -40.315,16.8746 -80.6507,33.9645 -122.4589,46.9614 -17.306,5.5291 -35.0786,9.3656 -52.65414,13.9101 -24.17033,6.678 -48.18511,13.8483 -72.30359,20.68 -21.01812,5.7652 -42.13992,11.4378 -63.73872,14.5872 -11.91407,1.908 -24.19105,2.3797 -36.07402,0.051 -20.17822,-3.4569 -39.02921,-11.971 -56.80181,-21.7573 -5.20527,-3.3339 -11.08454,-5.7958 -15.6262,-10.0221 1.15098,-5.242 3.60844,-10.1452 4.39649,-15.4795 3.90914,-22.024 0.15555,-44.4892 -5.16379,-65.949 -4.6661,-17.6028 -9.12479,-35.4107 -16.86012,-51.9876 -3.27663,-6.2781 -7.01987,-12.8227 -13.21022,-16.7001 -2.67522,-1.8569 -6.05553,-1.0874 -9.08331,-0.9951 3.97137,-44.0789 6.6777,-88.3731 4.91494,-132.6366 -1.09912,-22.619 -2.2086,-45.2277 -3.64991,-67.8263 -3.11072,-53.3316 -5.9,-106.6837 -7.94271,-160.06667 -1.10949,-35.19536 -2.79966,-70.38048 -2.32267,-105.60663 0.55982,-17.27477 0.74646,-34.65191 3.46316,-51.75208 z" /><path
     style="fill:#008300;stroke:#008300;stroke-width:0.294"
     inkscape:connector-curvature="0"
     id="path79"
     d="m 1239.2356,868.93915 c 0.98,-3.5 2.8,-7.88 6.92,-8.37 6.5,0.1 12.5499,4.02 15.84,9.55 2.84,6.22 3.97,12.99 5.35,19.64 1.0701,7.34 2.5701,14.63 3.11,22.04 0.4601,-0.08 1.38,-0.25 1.8401,-0.34 l 0.21,1.3 c -2.45,4.28 -3.1,9.19 -2.52,14.06 1.75,-0.87 3.55,-1.77 4.89,-3.24 2.5601,-3.19 4.91,-6.55 6.84,-10.16 0.9701,-2.06 1.53,-4.3 1.67,-6.56 6.97,0.8701 14.27,3.5 18.5,9.4301 3.12,4.22 3.67,9.65 3.92,14.73 0.1699,3.47 -0.63,7.19 -3.4501,9.48 3.75,3.1 6.05,7.61 6.9401,12.36 1.6,7.34 0.89,15.77 -4.0901,21.7401 3.8501,-0.31 7.0801,2.62 7.5801,6.38 1.52,11.79 -3.79,25.17005 -15.02,30.37005 2.3099,1.29 4.4399,3.18 4.92,5.94 1.61,7.4 0.48,15.21 -2.51,22.12 3.84,2.53 6.0599,6.87 6.5499,11.38 1.3101,8.27 -2.45,16.66 -8.59,22.1299 3.15,3.54 6.65,7.2 7.8,11.9501 0.6799,9.8999 -8.13,18.71 -18,18.4399 -5.25,0.28 -10.5701,0.07 -15.65,-1.36 -4.16,-1.08 -7.87,-3.53 -10.34,-7.05 -6.2401,0.89 -12.5701,1.41 -18.8601,0.9801 -2.34,-0.2101 -4.7799,-0.7301 -6.6699,-2.14 -1.48,-1.4701 -2.22,-3.4701 -3.1801,-5.25 -6.9399,3.4399 -14.2999,5.88 -21.3199,9.12 -10.51,4.59 -20.86,9.5499 -31.1,14.7 -0.7201,-1.61 -1.42,-3.22 -2.1101,-4.8099 17.78,-7.15 35.4801,-14.5 53.1901,-21.8401 2.15,-0.84 4.37,-1.51 6.62,-2.1 -0.47,1.17 -0.87,2.36 -1.21,3.59 1.6899,1.79 3.0699,4.49 5.7899,4.78 5.79,0.73 11.64,-0.07 17.38,-0.96 -0.48,-5.26 1.6,-10.17 4.86,-14.18 -5.22,-4.01 -9.9099,-9.83 -9.4199,-16.79 0.13,-6.09 4.62,-10.62 8.49,-14.8 -1.41,-0.72 -2.79,-1.41 -4.17,-2.09 -7.0699,5.4301 -15.2,10.2401 -19.61,18.28 -2.3099,4.46 -4.89,8.76 -7.3099,13.16 -0.67,1.23 -2.0601,1.72 -3.2001,2.38 -17.99,8.28 -35.84,16.88 -53.8099,25.21 -0.4801,-1.0399 -0.9401,-2.0599 -1.39,-3.0699 18.1599,-7.9399 35.9399,-16.75 53.5399,-25.86 2.9301,-1.21 2.25,-4.98 3.51,-7.39 4.78,-11.78 16.1901,-18.56 25.36,-26.6 -0.98,-3.25 -2.46,-7.16 -0.03,-10.13 5.1699,-6.71 13.4199,-9.92 20.9199,-13.28 2.64,-1.06 5.3501,-1.94 8.0701,-2.83 -2.59,-0.13 -5.1901,-0.21 -7.76,-0.47 -6.38,-0.82 -13,-0.57 -19.03,1.85 -8.29,2.9 -16.61,7.9 -25.72,6.21 -20.14,24.79 -40.35,49.53 -60.9301,73.96 -1.1699,1.3501 -2.3199,2.7001 -3.46,4.0601 -12.47,14.6899 -25.02,29.3199 -38.08,43.49 -5.53,5.83 -10.9501,11.8199 -17.1001,17.02 -6.3899,5.3099 -15.1899,5.73 -23.12,5.83 -17.6499,-0.51 -35.0199,-4.24 -52.1,-8.4299 -1.84,-0.4701 -3.65,-0.9701 -5.45,-1.4501 -8.42,-2.26 -16.8,-4.66 -25.07,-7.38 0.05,-1.99 0.14,-3.97 0.24,-5.9399 18.11,5.74 36.58,10.39 55.31,13.58 12.29,2 24.78,3.62 37.24,2.64 6.1801,-0.34 10.13,-5.73 14.36,-9.53 24.23,-24.5499 46.5801,-50.84 69.26,-76.79 13.24,-15.42 26.48,-30.83 39.5601,-46.38 2.6499,-3.29 5.3999,-6.52 8.6799,-9.19 8.04,2.12 15.5801,-2.79 22.92,-5.37 8.9399,-4.9 19.34,-2.6 29.03,-3.64 6.6799,-0.63 14.12,-2.02 18.61,-7.52005 4.3199,-5.38 6.38,-12.91 4.71,-19.67 -0.27,-2.05 -2.4301,-2.8 -4.21,-2.64 -5.3201,0.23 -10.27,2.44 -15.2201,4.18 0.4901,-1.37 1.04,-2.7 1.6001,-4.02 5.09,-2.09 11.12,-3.79 14.1499,-8.78 2.6101,-5.76 1.04,-12.33 -0.02,-18.26 -0.7101,-2.25 -0.92,-5.6 -3.66,-6.27 -5.5601,-1.08 -10.97,1.17 -16.28,2.48 2.8101,-5.39 9.71,-5.4 14.01,-9.0699 4.85,-3.27 3.71,-9.92 2.88,-14.84 -1.04,-8.08 -10.22,-10.13 -16.66,-12.31 -2.2799,5.61 -4.5699,11.33 -8.38,16.11 -3.35,4.2 -6.71,8.38 -10.0599,12.58 -1.8101,-4.27 0.36,-8.7 0.21,-13.08 -0.02,-10.98 -0.96,-21.98 -3,-32.78 -1.2,-6.13 -2.22,-12.37 -4.66,-18.16 -1.8999,-4.64 -5.98,-8.61 -11.0199,-9.48 -2.37,-0.47 -3.89,1.8 -4.53,3.73 -1.75,5.07 -1.9501,10.5 -2.54,15.79 -0.6899,6.31 -0.4,12.77 1.4301,18.8799 2.85,10.2401 8.8099,19.23 12.39,29.1801 3.2,10.79 1.36,22.53 -2.6801,32.85 -3.21,8.49 -9.58,15.16 -14.17,22.87 -3.12,5.33 -6.74,10.77 -7.0599,17.14005 -0.29,5.64 -5.48,9.04 -9.14,12.66 -36.8101,32.97 -74.17,65.3901 -113.3101,95.58 -3.72,2.5601 -7.38,6.65 -12.37,5.67 -8.38,-0.9701 -16.3899,-3.8301 -24.36,-6.4401 -17.95,-5.9 -35.34,-13.3099 -52.8799,-20.29 1.39,-2.0199 3,-3.8799 4.7599,-5.58 2.65,0.87 5.26,1.85 7.84,2.9501 16.83,7.3799 33.9,14.3099 51.47,19.7599 5.22,1.3601 10.64,3.4401 16.12,2.4801 5.65,-1.76 10.5,-5.3301 15.4,-8.53 14.5499,-10.16 28.24,-21.49 41.8099,-32.91 1.4,-1.19 2.8101,-2.38 4.23,-3.57 21.6,-18.5099 42.86,-37.43 63.73,-56.7599 -0.34,-6.9901 3.89,-12.86005 7.66,-18.32005 7.67,-11.11 16.02,-22.34 19.1901,-35.7 2.8199,-11.87 -0.42,-24.36 -6,-34.94 -3.61,-6.84 -6.1001,-14.29 -6.7301,-22.03 -0.71,-10.3207 -1.57,-20.9007 0.91,-31.0507 m 30.02,155.12005 c -3.46,1.59 -7.48,2.86 -9.6801,6.19 -1.9199,3.56 0.6901,7.61 3.5601,9.75 4.08,3.12 9.49,2.27 14.25,1.89 -2.37,4.29 -7.55,4.67 -11.38,6.97 -5.03,4.86 -6.34,13.28 -3.1801,19.51 2.91,5.02 9.14,6.25 14.4301,7.11 -2.67,2.59 -6.55,2.97 -9.54,4.97 -1.46,2.16 -1.21,4.97 -1.45,7.47 -0.05,2.7001 -0.67,6.28 2.17,7.88 4.74,2.79 10.5499,2.3101 15.8199,1.89 5.17,-0.67 11.09,-1.66 14.39,-6.17 2.6799,-3.5699 1.1899,-8.47 -1.17,-11.78 -2.0299,-3.12 -5.5299,-4.64 -8.7999,-6.06 4.47,-4.44 10.84,-7.99 12.11,-14.68 0.64,-5.11 0.85,-11.08 -2.39,-15.38 -3.67,-1.95 -7.92,0.11 -11.64,0.96 1.1,-1.89 2.61,-3.47 4.4301,-4.69 4.71,-3.03 5.96,-8.96 7.24,-14.02 1.1899,-4.08 -1.4,-9.86 -6.28,-9.18 -8.0901,0.65 -15.5001,4.32 -22.8901,7.37 z" /><path
     style="fill:#3ea43e;stroke:#3ea43e;stroke-width:0.294"
     inkscape:connector-curvature="0"
     id="path81"
     d="m 1243.5356,869.24915 c 0.64,-1.93 2.16,-4.2 4.53,-3.73 5.0399,0.87 9.12,4.84 11.0199,9.48 2.4401,5.79 3.4601,12.03 4.66,18.16 2.04,10.8 2.98,21.8 3,32.78 0.15,4.38 -2.02,8.81 -0.21,13.08 3.35,-4.2 6.71,-8.38 10.0599,-12.58 3.8101,-4.78 6.1001,-10.5 8.38,-16.11 6.4401,2.18 15.62,4.23 16.66,12.31 0.83,4.92 1.97,11.57 -2.88,14.84 -4.3,3.67 -11.2,3.68 -14.01,9.0699 5.3101,-1.31 10.72,-3.56 16.28,-2.48 2.74,0.67 2.95,4.02 3.66,6.27 1.0599,5.93 2.63,12.5 0.02,18.26 -3.0299,4.99 -9.0599,6.69 -14.1499,8.78 -0.5601,1.32 -1.11,2.65 -1.6001,4.02 4.9501,-1.74 9.9,-3.95 15.2201,-4.18 1.7799,-0.16 3.9399,0.59 4.21,2.64 1.67,6.76 -0.39,14.29 -4.71,19.67 -4.49,5.50005 -11.9301,6.89005 -18.61,7.52005 -9.6901,1.04 -20.0901,-1.2599 -29.03,3.64 -7.34,2.58 -14.88,7.49 -22.92,5.37 -3.28,2.67 -6.03,5.9 -8.6799,9.19 -13.0801,15.55 -26.3201,30.96 -39.5601,46.38 -22.6799,25.95 -45.03,52.2401 -69.26,76.79 -4.23,3.8 -8.1799,9.1901 -14.36,9.53 -12.46,0.98 -24.95,-0.64 -37.24,-2.64 -18.73,-3.1899 -37.2,-7.84 -55.31,-13.58 0.88,-16.48 1.71,-33.9401 10.14,-48.5901 17.54,6.9801 34.93,14.39 52.8799,20.29 7.9701,2.61 15.98,5.47 24.36,6.4401 4.99,0.98 8.65,-3.11 12.37,-5.67 39.14,-30.1899 76.5,-62.61 113.3101,-95.58 3.66,-3.62 8.85,-7.02 9.14,-12.66 0.3199,-6.37005 3.9399,-11.81005 7.0599,-17.14005 4.5901,-7.71 10.9601,-14.38 14.17,-22.87 4.04,-10.32 5.88,-22.06 2.6801,-32.85 -3.5801,-9.95 -9.54,-18.94 -12.39,-29.1801 -1.8301,-6.11 -2.12,-12.5699 -1.4301,-18.8799 0.5902,-5.2899 0.7902,-10.7199 2.5402,-15.7899 z" /><path
     style="fill:#333333;stroke:#cf4646;stroke-width:0.29660985"
     inkscape:connector-curvature="0"
     id="path83"
     d="m 806.08262,880.4947 c 8.96319,-3.58177 17.77463,-8.0791 27.44597,-9.43736 42.17555,6.96232 84.59387,12.86821 126.21302,22.79857 19.0493,4.57783 38.06825,9.50779 56.42959,16.3695 15.3567,5.73485 27.9518,16.66127 39.5352,27.89956 27.7191,27.54744 49.0144,60.4977 74.0526,90.31893 10.43,13.1702 18.1692,28.1109 26.4849,42.6091 -13.728,11.4898 -27.5776,22.8891 -42.2968,33.1112 -4.9573,3.2197 -9.8637,6.8114 -15.5794,8.5822 -5.5439,0.9659 -11.0271,-1.1268 -16.3078,-2.4953 -17.7748,-5.4833 -35.0435,-12.4556 -52.0695,-19.8807 -0.9913,-1.7708 -2.0232,-3.5114 -3.2373,-5.1213 -21.0523,-24.4787 -39.87904,-50.9597 -55.35722,-79.2818 -4.50183,-8.83376 -9.43867,-17.56685 -12.31175,-27.08469 -1.58817,-15.3332 -10.00518,-29.89169 -22.70125,-38.76562 -10.31879,-7.3547 -22.79238,-11.06726 -35.24575,-12.81792 -13.78875,-1.73051 -28.32611,-1.03628 -41.1032,4.86961 -13.46502,5.96626 -23.92544,17.24481 -30.76417,30.04259 -0.97118,-2.47504 -1.99295,-4.90983 -2.84272,-7.41506 -2.79216,-7.7974 0.63722,-16.57072 -2.85286,-24.19707 -4.04658,-2.55553 -9.01375,-1.42868 -13.48524,-1.10673 -9.3982,0.81495 -19.65629,1.09667 -27.92145,-4.15516 -5.74624,-4.15525 -10.90554,-11.07733 -9.21609,-18.52258 1.38595,-4.6583 4.4816,-8.71295 8.2348,-11.76148 7.59726,-5.93607 15.95347,-10.90629 24.89642,-14.55849 z" /><path
     style="fill:#e9f1f1;stroke:#e9f1f1;stroke-width:0.294"
     inkscape:connector-curvature="0"
     id="path85"
     d="m 923.76559,881.07915 c 9.88,0.01 19.72,1.07 29.57,1.8 -2.22,0.4 -4.22,1.42 -6.09,2.62 -7.8,-1.59 -15.67,-2.86 -23.48,-4.42 z" /><path
     style="fill:#d9d8d8;stroke:#d9d8d8;stroke-width:0.294"
     inkscape:connector-curvature="0"
     id="path87"
     d="m 953.33559,882.87915 c 8.83,0.86 17.62,2.19 26.39,3.6 10.8,2.45 21.69001,4.6299 32.29001,7.9 19.82,6.05 39.6801,11.99 59.47,18.15 10.73,3.52 21.76,6.67 31.62,12.33 7.1901,4.11 10.79,12.04 13.62,19.45 5.4501,15 12.7101,29.28 21.2001,42.78 2.3099,3.79 4.9399,7.52 5.72,12 -9.78,1.04005 -19.58,-0.33 -29.37,-0.1 -11.01,-14.38 -22,-28.77 -33.08,-43.1 -9.14,-11.71 -19.2001,-22.88 -31.16,-31.78 -15.5601,-11.84 -33.65,-19.84 -52.16001,-25.83 -16.56,-5.41 -33.6,-9.18 -50.63,-12.78 1.8699,-1.2 3.8699,-2.22 6.0899,-2.62 m 135.15001,43.48 c -2.87,-0.01 -5.45,2.64 -4.5599,5.57 2.08,9.57 9.7999,16.28 15,24.17 2.0699,2.8 3.87,6.49 7.5299,7.43 2.8,0.47 4.79,-2.4 5.3,-4.82 0.67,-2.68 -0.85,-5.11 -1.9301,-7.42 -2.75,-5.48 -3.49,-11.8701 -7.2699,-16.83 -3.29,-4.42 -8.3599,-8.18 -14.07,-8.1 z" /><path
     style="fill:#7e7e7e;stroke:#7e7e7e;stroke-width:0.294"
     inkscape:connector-curvature="0"
     id="path89"
     d="m 979.72559,886.47915 c 15.49,-0.8101 30.44001,5.7 45.98001,4.3799 26.27,6.78 52.05,15.58 77.1,26.02 3.4199,1.49 6.87,2.94 10.2799,4.48 1.14,0.65 2.7001,1.11 2.92,2.66 2.6801,8.41 5.58,16.77 9.27,24.81 3.9299,9.06 9.09,17.48 13.75,26.16 6.13,11.29 12.0699,22.69 17.9,34.14005 -7.02,-0.98 -14.05,-1.75 -21.05,-2.83 -0.8,-0.12 -2.4,-0.36 -3.2,-0.48 0.04,0.56 0.12,1.68 0.1599,2.24 -0.1699,-0.56 -0.51,-1.66 -0.6799,-2.21 -4.8,-0.75 -9.6,-1.4901 -14.4,-2.21 -1.17,-1.55 -2.33,-3.12 -3.48,-4.65005 9.79,-0.23 19.59,1.14005 29.37,0.1 -0.78,-4.48 -3.41,-8.21 -5.72,-12 -8.49,-13.5 -15.75,-27.78 -21.2001,-42.78 -2.83,-7.41 -6.4299,-15.34 -13.62,-19.45 -9.86,-5.66 -20.89,-8.81 -31.62,-12.33 -19.7899,-6.16 -39.65,-12.1 -59.47,-18.15 -10.5998,-3.2699 -21.48981,-5.4499 -32.28981,-7.8999 z" /><path
     style="fill:#349234;stroke:#349234;stroke-width:0.294"
     inkscape:connector-curvature="0"
     id="path91"
     d="m 1272.5056,912.75915 c 0.61,3.64 1.37,7.25 2.37,10.82 -1.34,1.47 -3.14,2.37 -4.89,3.24 -0.58,-4.87 0.07,-9.78 2.52,-14.06 z" /><path
     style="fill:#f3f3f3;stroke:#f3f3f3;stroke-width:0.294"
     inkscape:connector-curvature="0"
     id="path93"
     d="m 1088.4856,926.35915 c 5.7101,-0.08 10.78,3.6801 14.0701,8.1 3.7799,4.96 4.5199,11.35 7.2699,16.83 1.0801,2.31 2.6001,4.74 1.9301,7.42 -0.51,2.42 -2.5,5.29 -5.3,4.82 -3.6599,-0.94 -5.46,-4.63 -7.5299,-7.43 -5.2001,-7.89 -12.92,-14.6 -15,-24.17 -0.8902,-2.93 1.6898,-5.58 4.5598,-5.57 z" /><path
     style="fill:#656464;stroke:#656464;stroke-width:0.294"
     inkscape:connector-curvature="0"
     id="path95"
     d="m 863.44559,933.26915 c 12.63,-5.87 27,-6.56 40.63,-4.84 12.31,1.74 24.64,5.43 34.84,12.74 12.55,8.82 20.87,23.29 22.4399,38.53 -2.79,-4.83 -5.33,-9.78 -8.18,-14.56 -3.45,-10.38 -12.64,-17.07 -21.44,-22.76 -7.77,-4.93 -16.87,-7.69 -26.03,-8.32 -13.34,-1.42 -26.85,0.8 -39.49,5.07 -6.49,2.34 -13.36,4.61 -18.35,9.6 -7.3,7.11 -11.65,16.6 -15,26.08 -6.41,19.02 -8.75,39.14005 -9.62,59.11005 -1.5,45.5 8.99,91.4 30.32,131.64 4.49,8.09 8.75,16.9501 16.68,22.25 3.24,2.34 7.17,3.25 11.03,3.99 -0.08,0.3201 -0.24,0.9401 -0.32,1.26 4.85,-1.89 10.23,-2.17 14.76,-4.9 2.84,-1.0599 5.92,-1.0499 8.92,-0.85 -6.51,5.48 -14.77,9.5701 -23.47,8.99 -8.9901,-0.63 -16.64,-6.4199 -22.34,-13.01 -9.66,-11.37 -15.88,-25.1599 -21.08,-39.02 -7.14,-19.47 -11.91,-39.73 -15.37,-60.1499 -3.68,-22.1301 -5.49,-44.67 -3.64,-67.0701 1.59,-18.59005 5.5,-37.31005 14.3,-53.92005 6.7601,-12.72 17.1001,-23.93 30.4101,-29.86 z" /><path
     style="fill:#dbdbdb;stroke:#dbdbdb;stroke-width:0.294"
     inkscape:connector-curvature="0"
     id="path97"
     d="m 866.21559,939.12915 c 12.64,-4.27 26.15,-6.49 39.49,-5.07 -4.04,0.86 -8.13,1.4 -12.22,1.96 -1.54,8.08 -1.28,16.29 -1.5,24.47 -1.73,0.41 -3.45,0.85 -5.18,1.2 -6.15,0.66 -13.45,0.03 -18.2,4.74 -3.6299,3.57 -2.3199,9.24 -0.23,13.26 4.97,9.68 13.78,16.64 22.57,22.69005 -1.32,5.08 -2.1,10.31 -1.82,15.58 0.49,8.36 -1.61,16.62 -0.99,24.99 0.64,7.72 -1.53,15.32 -1,23.04 0.16,3.45 -0.05,6.91 -0.54,10.34 -1.08,6.71 0.19,13.54 -0.93,20.26 -1.1801,6.96 0.1,14.04 -0.97,21.01 -0.69,4.74 -0.65,9.5399 -0.51,14.33 0.26,7.03 -1.45,13.97 -1.07,21.01 0.38,6.71 -1.3,13.3101 -0.98,20.02 0.21,5.1899 -0.15,10.41 -1.3,15.5 -0.62,0.23 -1.85,0.7 -2.46,0.9299 1.07,0.3401 2.15,0.7101 3.25,1.0801 l -0.35,1.33 c -3.86,-0.74 -7.79,-1.65 -11.03,-3.99 -7.93,-5.2999 -12.19,-14.16 -16.68,-22.25 -21.33,-40.24 -31.82,-86.14 -30.32,-131.64 0.87,-19.97 3.21,-40.09005 9.62,-59.11005 3.35,-9.48 7.7,-18.97 15,-26.08 4.99,-4.99 11.86,-7.26 18.35,-9.6 z" /><path
     style="fill:#d9d8d8;stroke:#d9d8d8;stroke-width:0.294"
     inkscape:connector-curvature="0"
     id="path99"
     d="m 905.70559,934.05915 c 9.16,0.63 18.26,3.39 26.03,8.32 -0.09,0.68 -0.16,1.37 -0.21,2.08 0.15,2.34 2.14,3.82 3.72,5.32 5.2,4.54 10.04,9.6 13.63,15.54 5.27,8.57 8.11,18.32 12.52,27.32 7.87,16.30005 16.84,32.09005 26.9,47.15005 10.86,15.23 22.48001,29.91 34.28001,44.43 -5.35,3.2 -8.85,8.58 -10.89,14.36 -5.13,14.13 -5.67,29.36 -6.02,44.24 -0.4,18.1901 -0.33,36.46 1.84,54.55 1.5,10.7 3.59,21.8999 10.19,30.76 4.02,5 8.07,10.1799 13.55,13.6699 3.35,2.23 6.97,4.02 10.63,5.6901 -5.72,-0.42 -10.85,-3.2201 -16.13,-5.16 -16.63,-7.1801 -32.16001,-16.6901 -46.97001,-27.04 -19.94,-14.4 -41.93,-27.4199 -66.58,-31.3199 -8.48,-1.6 -17.31,0.4299 -24.54,5.04 2.66,-0.4801 5.35,-0.78 8.06,-0.8501 -4.53,2.73 -9.91,3.01 -14.76,4.9 0.08,-0.3199 0.24,-0.9399 0.32,-1.26 l 0.35,-1.33 c -1.1,-0.37 -2.18,-0.74 -3.25,-1.0801 0.61,-0.23 1.84,-0.7 2.46,-0.9299 1.15,-5.09 1.51,-10.3101 1.3,-15.5 -0.32,-6.71 1.36,-13.3101 0.98,-20.02 -0.38,-7.04 1.33,-13.98 1.07,-21.01 -0.14,-4.79 -0.18,-9.59 0.51,-14.33 1.07,-6.97 -0.21,-14.05 0.97,-21.01 1.12,-6.72 -0.15,-13.55 0.93,-20.26 0.49,-3.43 0.7,-6.89 0.54,-10.34 -0.53,-7.72 1.64,-15.32 1,-23.04 -0.62,-8.37 1.48,-16.63 0.99,-24.99 -0.28,-5.27 0.5,-10.5 1.82,-15.58 6.88,4.5 14.46,7.76 22.16,10.57 13.39,5.2 22.8701,16.73 30.5601,28.4 6.5,9.81 12.27,20.17 19.9399,29.15 5.6,6.42 13.03,11.77 21.6,13.11 2.16,0.33 5.48,0.13 5.83,-2.64 0.38,-4.11 -1.81,-7.84 -3.53,-11.41 -12.3,-22.21 -28.8,-41.81 -40.65,-64.31 -7.06,-12.65005 -14.06,-26.23005 -26.28,-34.70005 -9.84,-6.84 -22.15,-8.05 -33.77,-8.86 1.73,-0.35 3.45,-0.79 5.18,-1.2 0.22,-8.18 -0.04,-16.39 1.5,-24.47 4.09,-0.56 8.18,-1.1 12.22,-1.96 z" /><path
     style="fill:#f3f3f3;stroke:#f3f3f3;stroke-width:0.294"
     inkscape:connector-curvature="0"
     id="path101"
     d="m 931.52559,944.45915 c 0.05,-0.71 0.12,-1.4 0.21,-2.08 8.8,5.69 17.9901,12.38 21.44,22.76 -5.7,-8.3 -12.87,-15.64 -21.65,-20.68 z" /><path
     style="fill:#7f7e7e;stroke:#7f7e7e;stroke-width:0.294"
     inkscape:connector-curvature="0"
     id="path103"
     d="m 935.24559,949.77915 c -1.58,-1.5 -3.57,-2.98 -3.72,-5.32 8.78,5.04 15.95,12.38 21.65,20.68 2.85,4.78 5.39,9.73 8.18,14.56 2.84,9.46 7.72,18.14 12.17,26.92005 15.3,28.15 33.91001,54.47 54.72001,78.8 -1.57,0.6801 -3.13,1.36 -4.64,2.14 -1.7599,1.7001 -3.37,3.5601 -4.7599,5.58 -8.43,14.65 -9.26,32.1101 -10.14,48.5901 -0.1,1.97 -0.19,3.95 -0.24,5.9399 -0.18,12.4401 -0.3,24.91 0.72,37.3301 1.02,13 2.36,26.37 8.48,38.13 -0.13,1.6499 -0.17,3.33 0.03,5 -6.6,-8.8601 -8.69,-20.0601 -10.19,-30.76 -2.17,-18.0901 -2.24,-36.36 -1.84,-54.55 0.35,-14.88 0.89,-30.11 6.02,-44.24 2.04,-5.78 5.54,-11.16 10.89,-14.36 -11.8,-14.52 -23.42001,-29.2 -34.28001,-44.43 -10.06,-15.06 -19.03,-30.85 -26.9,-47.15005 -4.41,-9 -7.25,-18.75 -12.52,-27.32 -3.5901,-5.9401 -8.4301,-11.0001 -13.6301,-15.5401 z" /><path
     style="fill:#f3f3f3;stroke:#f3f3f3;stroke-width:0.294"
     inkscape:connector-curvature="0"
     id="path105"
     d="m 868.60559,966.42915 c 4.75,-4.71 12.05,-4.08 18.2,-4.74 11.62,0.81 23.93,2.02 33.77,8.86 12.22,8.47 19.22,22.05 26.28,34.70005 11.85,22.5 28.35,42.1 40.65,64.31 1.72,3.57 3.91,7.3 3.53,11.41 -0.35,2.77 -3.67,2.97 -5.83,2.64 -8.57,-1.3401 -16,-6.6901 -21.6,-13.11 -7.67,-8.98 -13.4399,-19.34 -19.9399,-29.15 -7.69,-11.67 -17.17,-23.2 -30.5601,-28.4 -7.7,-2.81 -15.28,-6.07 -22.16,-10.57 -8.79,-6.05005 -17.6,-13.01005 -22.57,-22.69005 -2.09,-4.02 -3.4,-9.69 0.23,-13.26 z" /><path
     style="fill:#d9d8d8;stroke:#d9d8d8;stroke-width:0.294"
     inkscape:connector-curvature="0"
     id="path107"
     d="m 1117.7556,1003.6392 c 4.8,0.72 9.6,1.46 14.4,2.21 0.1699,0.55 0.51,1.65 0.6799,2.21 2.17,7.76 4.24,15.55 5.99,23.42 -7.0599,-9.26 -14.0098,-18.58 -21.0699,-27.84 z" /><path
     style="fill:#646363;stroke:#646363;stroke-width:0.294"
     inkscape:connector-curvature="0"
     id="path109"
     d="m 1132.6756,1005.8192 c 0.7999,0.12 2.3999,0.36 3.2,0.48 4.67,13.35 9.2,26.76 14.14,40.02 -3.75,-4.94 -7.5601,-9.82 -11.1901,-14.84 -1.75,-7.8701 -3.8199,-15.66 -5.99,-23.42 -0.04,-0.56 -0.1199,-1.68 -0.1599,-2.24 z" /><path
     style="fill:#d9d8d8;stroke:#d9d8d8;stroke-width:0.294"
     inkscape:connector-curvature="0"
     id="path111"
     d="m 1278.5256,1012.5092 c 2.5699,0.26 5.17,0.34 7.76,0.47 -2.72,0.89 -5.4301,1.77 -8.0701,2.83 0.08,-1.11 0.1901,-2.21 0.3101,-3.3 z" /><path
     style="fill:#3ea43e;stroke:#3ea43e;stroke-width:0.294"
     inkscape:connector-curvature="0"
     id="path113"
     d="m 1269.2556,1024.0592 c 7.39,-3.05 14.8,-6.72 22.89,-7.37 4.88,-0.68 7.47,5.1 6.28,9.18 -1.28,5.06 -2.53,10.99 -7.24,14.02 -1.8201,1.22 -3.3301,2.8 -4.4301,4.69 3.72,-0.85 7.97,-2.91 11.64,-0.96 3.24,4.3 3.03,10.27 2.39,15.38 -1.27,6.69 -7.64,10.24 -12.11,14.68 3.27,1.42 6.77,2.94 8.7999,6.06 2.36,3.31 3.85,8.21 1.17,11.78 -3.3,4.51 -9.22,5.5 -14.39,6.17 -5.27,0.42 -11.08,0.9 -15.8199,-1.89 -2.8401,-1.6 -2.2201,-5.1799 -2.17,-7.88 0.24,-2.5 -0.01,-5.3099 1.45,-7.47 2.99,-2 6.87,-2.38 9.54,-4.97 -5.29,-0.86 -11.52,-2.09 -14.4301,-7.11 -3.1599,-6.23 -1.85,-14.65 3.1801,-19.51 3.83,-2.3 9.01,-2.68 11.38,-6.97 -4.76,0.38 -10.17,1.23 -14.25,-1.89 -2.87,-2.14 -5.48,-6.19 -3.5601,-9.75 2.2002,-3.33 6.2202,-4.6 9.6802,-6.19 z" /><path
     style="fill:#349234;stroke:#349234;stroke-width:0.294"
     inkscape:connector-curvature="0"
     id="path115"
     d="m 1260.2356,1043.1092 c 1.38,0.6801 2.76,1.3701 4.17,2.09 -3.87,4.18 -8.36,8.71 -8.49,14.8 -0.49,6.96 4.2,12.78 9.4199,16.79 -3.26,4.0099 -5.34,8.92 -4.86,14.18 -5.74,0.89 -11.59,1.6899 -17.38,0.96 -2.72,-0.29 -4.1,-2.99 -5.7899,-4.78 0.34,-1.23 0.74,-2.4199 1.21,-3.59 -2.25,0.59 -4.47,1.26 -6.62,2.1 -17.71,7.3401 -35.41,14.6901 -53.1901,21.8401 -0.8099,-1.8 -1.61,-3.5801 -2.3999,-5.3601 17.97,-8.33 35.8199,-16.9299 53.8099,-25.21 1.14,-0.66 2.53,-1.15 3.2001,-2.38 2.4199,-4.4 5,-8.7 7.3099,-13.16 4.4101,-8.04 12.5401,-12.85 19.6101,-18.28 z" /><path
     style="fill:#626663;stroke:#626663;stroke-width:0.294"
     inkscape:connector-curvature="0"
     id="path117"
     d="m 1023.6056,1087.5592 c 1.51,-0.78 3.07,-1.46 4.64,-2.14 1.2,1.6 2.22,3.3301 3.2,5.0901 -2.58,-1.1001 -5.19,-2.0801 -7.84,-2.9501 z" /><path
     style="fill:#333333;stroke:#cf4646;stroke-width:0.31142688"
     inkscape:connector-curvature="0"
     id="path119"
     d="m 1169.1765,1085.3443 c 18.4829,42.4332 34.9456,85.7977 50.2273,129.5955 13.427,38.924 26.5434,77.9997 37.6188,117.7362 1.2535,4.8737 3.1494,9.823 2.4553,14.9783 -3.4914,2.6537 -6.7343,5.6319 -9.9977,8.5668 -12.0181,10.7652 -26.3673,18.1083 -40.7993,24.5956 -20.2961,8.7942 -41.3277,15.6717 -62.6908,20.9892 -22.3164,5.7942 -45.2646,8.5235 -68.1817,9.8773 -31.8583,0.4766 -64.6905,-3.953 -93.31637,-19.3969 -10.07032,-4.8089 -19.02172,-11.762 -27.65193,-18.91 -11.30321,-11.0142 -22.57533,-22.711 -29.41319,-37.4185 -4.83832,-9.8124 -7.95679,-21.455 -4.78651,-32.3501 1.6473,-6.7581 5.21128,-12.8233 9.80095,-17.8269 7.43877,-8.7725 17.07394,-15.0324 26.86453,-20.5342 18.34829,-9.6282 37.89841,-16.4188 57.59352,-22.3105 9.0446,3.8663 18.5348,7.1372 28.3978,7.4514 4.3409,-3.9966 0.9118,-10.5271 -0.2901,-15.2708 20.7209,-6.8773 42.3638,-10.8196 62.4216,-19.7978 6.299,-3.13 12.7639,-6.4982 17.6747,-11.7834 1.8441,-2.4152 4.5378,-6.2382 1.9788,-9.1191 -5.2526,-5.0902 -12.8987,-5.4368 -19.6225,-6.4441 -19.6123,-1.5597 -39.3075,0.011 -58.7541,2.8916 -5.3665,0.8882 -11.0543,0.8556 -15.8927,3.8015 -1.6059,-15.5632 -0.7252,-31.2671 0.093,-46.8519 l 1.1706,0.2492 c 17.6957,4.5378 35.6917,8.5775 53.9777,9.1299 8.2159,-0.1083 17.3331,-0.5633 23.9533,-6.3142 6.3716,-5.6319 11.9871,-12.1192 17.7164,-18.4331 13.5306,-15.3464 26.5329,-31.1912 39.4523,-47.101 z" /><path
     style="fill:#aeaeae;stroke:#aeaeae;stroke-width:0.294"
     inkscape:connector-curvature="0"
     id="path123"
     d="m 1008.4656,1147.6692 c 8.27,2.72 16.65,5.12 25.07,7.38 -0.64,12.6 -1.59,25.25 -0.5,37.86 0.59,9.0701 4.27,17.51 7.1,26.04 2.97,8.95 6.89,17.73 7.97,27.1801 -6.23,0.47 -11.77,-2.91 -16.5699,-6.4501 -5.84,-4.35 -10.62,-10.0499 -13.87,-16.5499 -6.1201,-11.76 -7.46,-25.13 -8.48,-38.13 -1.0201,-12.4201 -0.9001,-24.8901 -0.7201,-37.3301 z" /><path
     style="fill:#646565;stroke:#646565;stroke-width:0.294"
     inkscape:connector-curvature="0"
     id="path125"
     d="m 1033.5356,1155.0492 c 1.7999,0.48 3.61,0.98 5.45,1.4501 l -1.13,-0.2301 c -0.7899,14.39 -1.64,28.89 -0.09,43.26 1.45,13.12 7.24,25.11 11.77,37.3501 1.16,4.38 4.47,10.4099 0.28,14.1 -2.5,-1.49 -5.15,-2.72 -7.9401,-3.49 -3.66,-1.67 -7.28,-3.4601 -10.63,-5.6901 -5.48,-3.49 -9.53,-8.6699 -13.55,-13.6699 -0.2,-1.67 -0.16,-3.3501 -0.03,-5 3.25,6.5 8.03,12.2 13.87,16.5499 4.7999,3.54 10.34,6.92 16.5699,6.4501 -1.08,-9.4501 -5,-18.2301 -7.97,-27.1801 -2.83,-8.53 -6.51,-16.97 -7.1,-26.04 -1.0898,-12.61 -0.1398,-25.26 0.5002,-37.86 z" /><path
     style="fill:#aeaeae;stroke:#aeaeae;stroke-width:0.294"
     inkscape:connector-curvature="0"
     id="path127"
     d="m 887.65559,1189.0093 c 7.23,-4.6101 16.06,-6.64 24.54,-5.04 24.65,3.9 46.64,16.9199 66.58,31.3199 14.81,10.35 30.34001,19.86 46.97001,27.04 5.28,1.9399 10.41,4.74 16.13,5.16 2.79,0.77 5.4401,2 7.9401,3.49 -9.52,-0.29 -18.6801,-3.3101 -27.41,-6.88 -22.28,-9.3101 -42.44001,-22.74 -62.62001,-35.8101 -16.89,-10.15 -35.14,-19.6 -55.15,-20.98 -3,-0.2 -6.08,-0.21 -8.92,0.85 -2.7101,0.07 -5.4001,0.3701 -8.0601,0.8502 z" /><path
     style="fill:#1a1a1a;stroke:#c24141;stroke-width:0.34126782"
     inkscape:connector-curvature="0"
     id="path129"
     d="m 1053.6604,1188.9534 c 21.0893,-3.1897 42.4482,-4.9288 63.7174,-3.2017 7.2919,1.1151 15.5838,1.4989 21.2801,7.1353 2.7753,3.1899 -0.146,7.4233 -2.146,10.0975 -5.3257,5.8522 -12.3367,9.5817 -19.1679,13.0474 -21.7521,9.9415 -45.2233,14.3066 -67.6945,21.9218 -5.0899,-14.6786 -11.5953,-29.0572 -13.2244,-44.7911 5.2469,-3.2616 11.4152,-3.2257 17.2353,-4.2092 z" /><path
     style="fill:#008300;stroke:#008300;stroke-width:0.294"
     inkscape:connector-curvature="0"
     id="path131"
     d="m 703.70559,1325.9892 c 3.23,-2.36 7.46,-1.5601 10.72,0.2899 -28.21,20.8401 -58.36,39.1801 -90.37,53.5801 -18.96,8.37 -38.58,15.4199 -58.85,19.86 -44.73,9.5699 -90.76,7.6799 -136.01,12.78 -22.66,2.6499 -45.22,7.84 -65.99,17.45 -15.54,7.4399 -30.65,15.77 -45.34,24.76 -26.16,16.01 -50.32,35.25 -71.71,57.23 -14.03,14.27 -26.99,29.54 -39.38,45.24 -12.15,15.54 -23.7,31.5601 -34.1,48.3201 -7.74,12.7899 -15.43,25.76 -20.72,39.7899 4.96,-5.4 9.78,-10.9099 14.89,-16.1699 11.62,-10.64 23.45,-21.15 36.65,-29.8201 15.69,-10.8099 33.09,-19.01 51.21,-24.83 20.11,-6.88 41.15,-11.09 62.4,-12.02 17.12,-0.8 34.23,1.16 51.06,4.21 20.25,3.75 39.76,10.52 59.31,16.8401 23.09,7.46 46.08,15.2999 69.51,21.6399 18.08,4.7401 36.4,9.3601 55.15,10.14 11.47,0.5801 22.78,-1.84 33.94,-4.14 39.01,-8.6399 76.77,-21.86 114.98,-33.35 12.19,-3.75 24.76,-6.08 36.9,-9.96 1.71,-8.37 2.84,-16.83 3.44,-25.34 1.64,11.49 3.51,23.46 0.22,34.83 -1.82,12.17 -5.2,24.24 -4.7,36.65 0.3199,13.72 5.27,27.02 12.75,38.4199 6.34,9.7401 14.21,18.38 22.68,26.29 10.04,9.42 19.08,20.55 23.29,33.86 3.78,11.4601 3.14,24.02 -0.4,35.4601 -5.06,16.22 -13.55,31.2699 -17.22,47.95 -2.19,9.9399 -1.5,21.08 4.56,29.6 3.04,4.7001 7.73,8.28 13.14,9.8 12.75,3.77 26.22,3.5 39.39,3.24 23.3701,-0.83 46.66,-3.14 70,-4.52 23.98,-1.6 48.08,-1.8099 72.04,0.22 7.51,0.51 14.99,1.4501 22.52,1.79 21.45001,2.89 42.97001,5.3199 64.36001,8.6801 22.7,3.2899 45.37,6.86 68.1899,9.33 25.2301,2.42 50.61,3.63 75.9501,2.62 11.46,-0.8 23.1699,-1.5701 34.0599,-5.54 4.8401,-1.71 9.8201,-4.95 10.63,-10.45 0.73,-7.84 -4.9199,-14.25 -10.4199,-19.03 -11.7101,-9.76 -25.92,-16 -40.3401,-20.5599 -17.89,-5.91 -37.0599,-3.7001 -55.4299,-1.8301 -6.22,0.72 -12.4301,1.49 -18.61,2.47 -21.5801,2.64 -43.0801,7.2401 -64.9401,6.39 -21.1,-0.1699 -42.45,-1.0399 -62.96,-6.45 -11.10001,-3 -21.94001,-7.67 -30.95001,-14.91 -4.17,-3.2999 -7.51,-8.39 -6.61,-13.91 1.12,-7.98 5,-15.1899 7.73,-22.6699 4.76,-13.3201 14.75,-23.78 24.5,-33.66 13.78001,-13.64 28.99001,-25.7 43.86001,-38.11 8.36,-7.01 16.0699,-15.03 21.61,-24.47 1.9299,-6.8101 1.59,-14.0701 1.5599,-21.0901 -0.89,-22.5 -4.61,-45.4099 -14.86,-65.6799 -3.38,-7.17 -8.39,-13.3 -13.28,-19.45 8.6801,2.34 13.87,10.3999 17.75,17.9199 7.51,15.4401 11.17,32.42 14.01,49.26 1.9701,11.53 2.26,23.26 1.5701,34.92 16.0299,-0.85 30.6599,-8.4601 43.83,-17.1 15.8201,-10.5 29.87,-23.39 43.39,-36.66 22.3199,-22.2001 42.95,-46.14 61.37,-71.6801 11.46,-15.9399 22.15,-32.52 30.76,-50.1899 6.75,-13.6901 11,-28.4401 14.42,-43.26 5.7599,-25.6901 6.95,-53 -0.63,-78.4401 1.62,-1.46 3.2,-2.97 4.72,-4.5299 5.5699,23.11 7.96,47.25 4.33,70.86 -5.2999,36.46 -22.48,69.96 -42.9199,100.1599 -19.87,28.9301 -42.75,55.7301 -67.3301,80.76 -13.8099,13.9601 -28.59,27.0701 -44.9,38.0601 -13.99,14.11 -29.51,26.5599 -44.48,39.61 -10.27,9.0699 -20.23,18.76 -27.45,30.5 -4.99,7.95 -10.25,16.38 -11.06,25.95 -0.7,6.4 2.81,12.5701 7.95,16.2001 9.4299,6.78 21.01,9.48 32.1699,12.02 21.6901,4.34 43.79,7.36 65.9701,6.9199 21.1399,0.1 42.0599,-3.46 62.85,-6.9399 12.61,-2.04 25.2999,-3.9601 38.11,-4.02 19.0699,0.1801 38,5.14 55.03,13.65 8.47,4.39 16.5299,10.0699 22.2799,17.7999 3.91,5.25 6.53,11.8501 5.62,18.49 -0.84,5.8101 -4.1499,11.8201 -9.95,13.88 -10.12,3.9301 -21.12,4.6901 -31.85,5.39 -8.17,0.62 -16.36,0.6901 -24.54,0.54 5.2001,8.3 5.28,20.52 -2.53,27.25 -6.3099,4.22 -14.11,5.1801 -21.46,6.27 -14.11,1.86 -28.37,1.9299 -42.5699,1.74 -24.4501,-0.03 -48.8401,-2.0701 -73.16,-4.38 -23.67,-2.45 -47.28,-5.45 -70.75,-9.36 -23.73,-3.74 -47.12001,-9.6 -71.10001,-11.6 -26.63,-2.76 -53.51,-1.9601 -80.09,0.98 -26.92,2.7 -53.92,7.61 -81.06,5.02 -10.25,-1.16 -20.98,-2.9501 -29.58,-9.03 -6.11,-4.2001 -9.78,-11.37 -10.23,-18.7001 -0.67,-10.3099 2.45,-20.3199 5.21,-30.11 2.66,-8.59 4.65,-17.3999 8.05,-25.73 4.37,-11.21 9.12,-22.88 8.05,-35.16 -1.07,-14.4399 -9.46,-27.0199 -18.79,-37.5699 -5.92,-6.77 -12.67,-12.71 -19.35,-18.7 -13.37,-12.52 -19.98,-30.76 -21.21,-48.74 -1.03,-15.5901 0.5,-31.29 4.1,-46.4801 -43.67,9.5701 -85.16,26.67 -128.13,38.7001 -22.74,6.4399 -46.46,10.64 -70.14,8.23 -40.91,-3.88 -78.46,-21.77 -117.16,-34.15 -23.58,-7.8199 -47.87,-13.8199 -72.63,-16.2999 -24.04,-2.2301 -48.7,-2.54 -72.23,3.6499 -36.76,9.3301 -69.41,30.6001 -97.02,56.12 -21.61,20.25 -40.94,43.0701 -56.7,68.17 1.47,-7.22 4.29,-14.09 6.74,-21.01 14.22,-37.28 34.17,-72.21 57.43,-104.5599 23.29,-32.2301 50.14,-61.8601 79.7,-88.4501 27.29,-24.35 58.09,-45.23 92.21,-58.74 24.06,-9.5699 49.55,-15.3 75.28,-17.95 22.42,-2.5 45,-2.8201 67.5,-4.12 23.29,-0.92 46.58,-3.91 69.04,-10.25 36.99,-10.3201 72.01,-27 104.42,-47.4801 9.3601,-6.0099 18.5601,-12.3 27.1301,-19.4 m 367.41001,328.96 c -2.53,0.55 -6.01,-0.1801 -7.4199,2.5699 -5.53,8.5701 -12.5901,16.01 -19.9501,23.02 -14.33,13.41 -29.8,25.53 -44.20001,38.86 -11.33,10.3201 -20.6299,22.8 -27.39,36.55 -2.71,6.17 -5.29,13.26 -3.06,20 2,6.4399 7.89,10.6 13.66,13.48 8.99,4.27 18.74001,6.6 28.44001,8.65 23.03,4.39 46.4901,7.22 69.97,6.1899 24.23,-0.5699 47.97,-5.8899 71.89,-9.2 17.97,-2.47 36.5499,-2.3 54.0199,3 16.89,4.98 34.3101,12.35 45.4501,26.59 14.37,-0.59 28.75,-2.1899 42.7999,-5.3199 6.2101,-1.59 12.8501,-3.15 17.77,-7.53 3.0601,-2.65 3.73,-7.25 2.0801,-10.84 -3.1001,-7.35 -8.92,-13.04 -14.39,-18.65 -4.05,-4.22 -8.9,-7.67 -14.3101,-9.9 -10.86,-4.65 -22.6899,-6.36 -34.38,-7.36 -23.39,-1.51 -46.9099,0.1801 -70.02,3.9501 -22.7899,3.7599 -46,3.98 -69,2.62 -21.7699,-1.53 -43.45,-4.7101 -64.58,-10.17 -7.87,-2.3 -16.0499,-6.08 -20.54,-13.28 -4.45,-7.49 -3.11,-16.79 -0.23,-24.58 5.08,-13.17 12.7499,-25.35 22.71,-35.39 13.0499,-13.79 27.6599,-25.96 41.86,-38.51 -7.0299,1.87 -13.8699,4.59 -21.1799,5.25 z" /><path
     style="fill:#6cc36c;stroke:#6cc36c;stroke-width:0.294"
     inkscape:connector-curvature="0"
     id="path133"
     d="m 624.05559,1379.8592 c 32.01,-14.4 62.16,-32.74 90.37,-53.5801 -1.49,19.3 -5.14,38.36 -8.68,57.37 -3.55,17.2001 -7.81,34.4701 -15.59,50.3201 -5.16,10.48 -12.37,20.3199 -22.3,26.73 -4.06,2.58 -8.68,4.9301 -13.6299,4.53 -3.96,-0.25 -7.44,-2.55 -10.09,-5.36 -7.84,-8.3401 -11.55,-19.99 -20.64,-27.2301 -4.57,-3.7599 -11.11,-4.0099 -16.47,-1.9399 -7.93,3.05 -14.42,8.8101 -20.44,14.65 -10.87,10.83 -21.39,22.2899 -34.42,30.6 -6.55,4.15 -14.05,7.42 -21.95,7.14 -6.99,-0.12 -13.48,-3.3 -19.21,-7.0601 -7.14,-4.6899 -13.14,-10.8199 -19.69,-16.25 -8.3,-6.84 -19.62,-9.96 -30.21,-7.86 -12.81,2.4601 -24.05,9.8301 -33.79,18.2101 -7.74,6.62 -14.54,14.23 -20.94,22.13 -4.64,5.6599 -10.62,11.08 -18.22,11.8899 -9.11,1.02 -17.33,-3.96 -24.86,-8.38 -13.51,-8.4199 -27.08,-17.84 -43.06,-20.72 -6.1,-1.25 -12.96,-0.1 -17.46,4.4601 -6.46,6.49 -9.97,15.1799 -13.77,23.35 -6.45,13.96 -11.66,28.6699 -20.66,41.2799 -3.96,5.7401 -8.81,10.79 -13.76,15.67 -5.97,4.8201 -12.78,8.4501 -20.03,10.9301 -3.38,-0.16 -7.22,0.08 -10.01,-2.1901 -2.95,-2.9299 -3.11,-7.91 -6.81,-10.2 -3.24,-2.1801 -7.31,-1.4301 -10.96,-1.17 12.39,-15.7 25.35,-30.97 39.38,-45.24 21.39,-21.98 45.55,-41.22 71.71,-57.23 14.69,-8.99 29.8,-17.3201 45.34,-24.76 20.77,-9.61 43.33,-14.8 65.99,-17.45 45.25,-5.1001 91.28,-3.2101 136.01,-12.78 20.2699,-4.4399 39.8899,-11.4899 58.8499,-19.8599 z" /><path
     style="fill:#3ea43e;stroke:#3ea43e;stroke-width:0.294"
     inkscape:connector-curvature="0"
     id="path135"
     d="m 714.42559,1326.2792 c 6.67,5.4801 9.83,13.78 12.79,21.62 4.2,11.26 7.9,22.74 10.48,34.5 -0.64,9.15 0.09,18.37 -1.28,27.4701 -2.6201,20.24 -9.46,39.7 -18.2401,58.0399 -1.86,3.8201 -3.43,7.77 -4.79,11.8 4.6,4.48 10.23,8.9 11.29,15.66 0.88,6.6799 -3.27,12.75 -7.71,17.3099 -7.43,7.3 -16.59,12.47 -25.65,17.4501 -7.79,4.5099 -16.11,7.98 -24.29,11.71 -8.3,3.62 -16.46,7.67 -25.01,10.66 -21.37,4.1699 -43.19,5.2999 -64.89,6.33 -30.5,0.85 -60.98,-0.92 -91.36,-3.4401 -48.02,-3.5099 -95.85,-9.33 -143.93,-11.96 -24.72,-1.6699 -49.75,2.38 -72.85,11.29 -4.82,1.6699 -9.26,4.49 -14.4,5.09 4.95,-4.88 9.8,-9.9299 13.76,-15.67 9,-12.61 14.21,-27.3199 20.66,-41.2799 3.8,-8.17 7.31,-16.86 13.77,-23.35 4.5,-4.5601 11.36,-5.7101 17.46,-4.4601 15.98,2.88 29.55,12.3 43.06,20.72 7.53,4.42 15.75,9.4 24.86,8.38 7.6,-0.8099 13.58,-6.23 18.22,-11.8899 6.4,-7.9 13.2,-15.51 20.94,-22.13 9.74,-8.38 20.98,-15.75 33.79,-18.2101 10.59,-2.1 21.91,1.02 30.21,7.86 6.55,5.4301 12.55,11.5601 19.69,16.25 5.73,3.76 12.22,6.9401 19.21,7.0601 7.9,0.28 15.4,-2.99 21.95,-7.14 13.03,-8.3101 23.55,-19.77 34.42,-30.6 6.02,-5.84 12.51,-11.6 20.44,-14.65 5.36,-2.0699 11.9,-1.8199 16.47,1.9399 9.09,7.2401 12.8,18.89 20.64,27.2301 2.65,2.8099 6.13,5.11 10.09,5.36 4.95,0.4 9.5699,-1.9501 13.6299,-4.53 9.9301,-6.41 17.14,-16.25 22.3,-26.73 7.78,-15.85 12.04,-33.12 15.59,-50.3201 3.5402,-19.01 7.1902,-38.0699 8.6802,-57.3699 z" /><path
     style="fill:#3ea43e;stroke:#3ea43e;stroke-width:0.294"
     inkscape:connector-curvature="0"
     id="path137"
     d="m 1237.3856,1368.4892 c 7.96,-4.77 15.8,-9.8201 22.8,-15.9601 7.58,25.4401 6.3899,52.75 0.63,78.4401 -3.42,14.8199 -7.67,29.5699 -14.42,43.26 -8.61,17.6699 -19.3,34.25 -30.76,50.1899 -18.42,25.54 -39.05,49.48 -61.37,71.6801 -13.52,13.27 -27.5699,26.16 -43.39,36.66 -13.17,8.6399 -27.8,16.25 -43.83,17.1 0.6899,-11.66 0.4,-23.39 -1.5701,-34.92 -2.84,-16.84 -6.5,-33.8199 -14.01,-49.26 -3.88,-7.52 -9.0699,-15.58 -17.75,-17.9199 4.89,6.1499 9.9,12.2799 13.28,19.45 10.25,20.27 13.97,43.1799 14.86,65.6799 0.03,7.02 0.37,14.28 -1.5599,21.0901 -5.54,9.4399 -13.25,17.46 -21.61,24.47 -14.8701,12.41 -30.0801,24.47 -43.86001,38.11 -9.75,9.88 -19.74,20.34 -24.5,33.66 -2.73,7.48 -6.61,14.6899 -7.73,22.6699 -0.9,5.52 2.44,10.6101 6.61,13.91 9.01,7.24 19.85,11.91 30.95001,14.91 20.51,5.41 41.86,6.28 62.96,6.45 21.86,0.8501 43.36,-3.75 64.9401,-6.39 -1.29,3.0901 -3.4401,6.5701 -1.66,9.9501 3.09,6.1899 9.76,9.33 15.74,12.13 20.24,8.5699 42.42,10.1 63.9,13.47 15.5,1.98 31.13,5.48 46.8199,3.4 -0.8099,5.5 -5.7899,8.74 -10.63,10.45 -10.89,3.97 -22.6,4.74 -34.0599,5.54 -25.3401,1.01 -50.72,-0.2 -75.9501,-2.62 -22.8199,-2.47 -45.49,-6.04 -68.1899,-9.33 -21.39,-3.3601 -42.91,-5.79 -64.36001,-8.6801 -6.82,-3.63 -14.54,-4.79 -21.94,-6.65 -48.8,-10.65 -98.98,-11.1699 -148.64,-13.74 -6.28,-0.6899 -13.02,-1.65 -18.13,-5.64 -3.4,-3.14 -3.03,-8.35 -0.89,-12.08 3.52,-7.13 9.81,-12.25 15.33,-17.77 15.53,-13.45 32.46,-25.15 49.56,-36.49 6.72,-4.96 13.96,-9.22 20.42,-14.52 3.67,-2.96 6.33,-7.49 5.89,-12.3199 -0.62,-8.77 -6,-16.15 -11.01,-23.01 -16.68,-21.78 -37.09,-40.3101 -54.49,-61.4601 -5.59,-8.22 -5.69,-18.97 -3.39,-28.33 3.93,-15.53 11.59,-29.9399 21.07,-42.77 11.38,-14.85 26.88,-27.6699 45.59,-31.53 18.58,-3.45 36.67,-9.13 54.41,-15.5599 36.24,-13.01 71.50001,-28.55 106.56001,-44.42 29.23,-13.23 58.1801,-27.0299 87.13,-40.85 8.11,-4.3 16.77,-7.48 24.67,-12.17 17.13,-8.97 33.6,-19.2899 48.62,-31.5 4.4399,-3.5699 8.46,-7.61 12.88,-11.2 1.8699,-1.44 3.14,-3.4501 4.0799,-5.5801 z" /><path
     style="fill:#349234;stroke:#349234;stroke-width:0.294"
     inkscape:connector-curvature="0"
     id="path139"
     d="m 1189.1856,1392.0692 c 16.1799,-7.61 32.5,-14.99 48.2,-23.58 -0.9399,2.13 -2.21,4.14 -4.08,5.58 -4.42,3.59 -8.4401,7.63 -12.88,11.2 -15.02,12.2101 -31.49,22.53 -48.62,31.5 -7.9,4.6901 -16.5601,7.87 -24.67,12.17 -28.95,13.8201 -57.9,27.62 -87.13,40.85 -35.06,15.87 -70.32001,31.41 -106.56001,44.42 -17.74,6.4299 -35.83,12.11 -54.41,15.5599 -18.71,3.8601 -34.21,16.6801 -45.59,31.53 -9.48,12.8301 -17.14,27.24 -21.07,42.77 -2.3,9.36 -2.2,20.11 3.39,28.33 17.4,21.15 37.81,39.6801 54.49,61.4601 5.01,6.86 10.39,14.24 11.01,23.01 0.44,4.83 -2.22,9.36 -5.89,12.3199 -6.46,5.3 -13.7,9.5601 -20.42,14.52 -17.1,11.34 -34.03,23.04 -49.56,36.49 -5.52,5.52 -11.81,10.64 -15.33,17.77 -2.14,3.73 -2.51,8.9399 0.89,12.08 5.11,3.99 11.85,4.9501 18.13,5.64 49.66,2.5701 99.84,3.09 148.64,13.74 7.4,1.86 15.12,3.02 21.94,6.65 -7.53,-0.34 -15.01,-1.28 -22.52,-1.79 -23.96,-2.0299 -48.06,-1.8199 -72.04,-0.22 -23.34,1.38 -46.6299,3.6901 -70,4.52 -13.17,0.26 -26.64,0.53 -39.39,-3.24 -5.41,-1.52 -10.1,-5.1 -13.14,-9.8 -6.06,-8.52 -6.75,-19.66 -4.56,-29.6 3.67,-16.6801 12.16,-31.73 17.22,-47.95 3.54,-11.4401 4.1801,-24 0.4,-35.4601 -4.21,-13.3099 -13.25,-24.4399 -23.29,-33.86 -8.47,-7.91 -16.34,-16.5499 -22.68,-26.29 -7.48,-11.3999 -12.4301,-24.7 -12.75,-38.4199 -0.5,-12.41 2.8799,-24.48 4.7,-36.65 3.29,-11.37 1.42,-23.34 -0.22,-34.83 -0.6,8.51 -1.73,16.97 -3.44,25.34 -12.14,3.88 -24.71,6.21 -36.9,9.96 -38.21,11.49 -75.97,24.7101 -114.98,33.35 -11.16,2.3 -22.47,4.7201 -33.94,4.14 -18.75,-0.7799 -37.07,-5.3999 -55.15,-10.14 -23.43,-6.34 -46.42,-14.1799 -69.51,-21.6399 -19.55,-6.3201 -39.06,-13.0901 -59.31,-16.8401 -16.83,-3.0499 -33.94,-5.01 -51.06,-4.21 -21.25,0.9301 -42.29,5.14 -62.4,12.02 -18.12,5.8199 -35.52,14.02 -51.21,24.83 -13.2,8.67 -25.03,19.1801 -36.65,29.8201 2.65,-4.9601 7.2,-8.41 10.95,-12.4601 12.2,-12.59 25.65,-23.95 39.93,-34.12 5.57,-3.99 11.67,-7.25 16.83,-11.7999 7.25,-2.48 14.06,-6.11 20.03,-10.9301 5.14,-0.6 9.58,-3.42 14.4,-5.09 23.1,-8.91 48.13,-12.96 72.85,-11.29 48.08,2.63 95.91,8.4501 143.93,11.96 30.38,2.52 60.86,4.29 91.36,3.4401 21.7,-1.03 43.52,-2.16 64.89,-6.33 8.55,-2.99 16.71,-7.04 25.01,-10.66 8.18,-3.73 16.5,-7.2001 24.29,-11.71 9.06,-4.9801 18.22,-10.15 25.65,-17.4501 4.44,-4.5599 8.59,-10.63 7.71,-17.3099 -1.06,-6.76 -6.69,-11.1801 -11.29,-15.66 1.36,-4.03 2.93,-7.98 4.79,-11.8 8.78,-18.34 15.62,-37.7999 18.2401,-58.0399 1.37,-9.1001 0.64,-18.3201 1.28,-27.4701 4.02,16.1901 6.13,32.8601 6.25,49.54 -0.23,11.28 -1.08,23.23 -7.51,32.91 6.8,6.9299 14.84,12.5599 23,17.78 17.83,11.1699 37.98,18.7799 58.86,21.59 18.22,2.4199 36.83,0.97 54.6201,-3.52 30.03,-6.76 59.4,-16.05 88.31,-26.5601 18.71,-6.7 37.77,-12.48 57.17001,-16.87 17.27,-3.88 34.11,-9.4199 50.8,-15.2799 40.7898,-14.66 80.5998,-31.89 119.9898,-49.92 z" /><path
     style="fill:#3ea43e;stroke:#3ea43e;stroke-width:0.294"
     inkscape:connector-curvature="0"
     id="path141"
     d="m 172.67559,1605.4992 c 10.4,-16.76 21.95,-32.78 34.1,-48.3201 3.65,-0.26 7.72,-1.01 10.96,1.17 3.7,2.2899 3.86,7.27 6.81,10.2 2.79,2.27 6.63,2.03 10.01,2.1901 -5.16,4.5499 -11.26,7.8099 -16.83,11.7999 -14.28,10.17 -27.73,21.53 -39.93,34.12 -3.75,4.05 -8.3,7.5 -10.95,12.4601 -5.11,5.26 -9.93,10.7699 -14.89,16.1699 5.29,-14.0298 12.98,-26.9999 20.72,-39.7899 z" /><path
     style="fill:#349234;stroke:#349234;stroke-width:0.294"
     inkscape:connector-curvature="0"
     id="path143"
     d="m 1071.1156,1654.9492 c 7.3101,-0.66 14.15,-3.38 21.1801,-5.25 -14.2001,12.55 -28.8101,24.72 -41.86,38.51 -9.9601,10.04 -17.63,22.22 -22.71,35.39 -2.88,7.7899 -4.22,17.09 0.23,24.58 4.4901,7.2001 12.67,10.98 20.54,13.28 21.13,5.46 42.8101,8.64 64.58,10.17 23,1.36 46.2101,1.1399 69,-2.62 23.1101,-3.77 46.63,-5.4601 70.02,-3.9501 11.6901,1 23.52,2.71 34.38,7.36 5.41,2.23 10.26,5.6801 14.3101,9.9 5.47,5.61 11.2899,11.3 14.39,18.65 1.6499,3.59 0.98,8.1899 -2.0801,10.84 -4.9199,4.38 -11.5599,5.9401 -17.77,7.53 -14.0499,3.13 -28.4299,4.73 -42.7999,5.3199 -11.14,-14.24 -28.5601,-21.61 -45.4501,-26.59 -17.47,-5.3 -36.0499,-5.47 -54.0199,-3 -23.92,3.3101 -47.66,8.63 -71.89,9.2 -23.48,1.03 -46.9401,-1.7999 -69.97,-6.1899 -9.7,-2.05 -19.45001,-4.38 -28.44001,-8.65 -5.77,-2.88 -11.66,-7.04 -13.66,-13.48 -2.23,-6.74 0.35,-13.83 3.06,-20 6.76,-13.75 16.06,-26.23 27.39,-36.55 14.40001,-13.33 29.87011,-25.45 44.20001,-38.86 7.36,-7.01 14.42,-14.45 19.9501,-23.02 1.4097,-2.75 4.8897,-2.0199 7.4197,-2.5699 z" /><path
     style="fill:#6cc36c;stroke:#6cc36c;stroke-width:0.294"
     inkscape:connector-curvature="0"
     id="path145"
     d="m 1146.6656,1799.2992 c 18.37,-1.87 37.5399,-4.08 55.4299,1.8301 14.42,4.5599 28.63,10.7999 40.3401,20.5599 5.5,4.78 11.1499,11.1901 10.4199,19.03 -15.6899,2.08 -31.3199,-1.42 -46.8199,-3.4 -21.48,-3.37 -43.66,-4.9 -63.9,-13.47 -5.98,-2.8 -12.65,-5.9401 -15.74,-12.13 -1.78,-3.38 0.37,-6.86 1.66,-9.9501 6.18,-0.9799 12.3901,-1.75 18.61,-2.4699 z" /><g
     id="g3695"><polygon
       transform="matrix(0.10723801,-0.02743474,0.02837823,0.11092597,375.44122,276.0101)"
       points="3154,573 0,3488 2265,3130 6001,1658 7658,0 "
       class="fil0"
       id="polygon19"
       style="clip-rule:evenodd;fill:url(#id1);fill-rule:evenodd;image-rendering:optimizeQuality;shape-rendering:geometricPrecision;text-rendering:geometricPrecision" /><path
       class="fil1"
       d="m 703.6929,561.36455 c -7.80468,23.97927 -13.36693,48.68489 -16.87909,73.81154 0.47943,-0.35902 0.93048,-0.82898 1.08193,-1.57684 C 718.44194,503.34393 922.92832,506.34114 922.83691,505.53723 905.04969,351.60033 1117.1234,281.98126 1207.97,300.34141 c -20.5889,-6.78772 -41.7456,-11.77556 -63.0411,-15.07326 -65.3655,-17.90603 -68.8342,-27.89174 -66.9945,-41.24467 1.8398,-13.35293 -302.84282,71.21254 -388.96511,237.90488 23.73228,22.64776 24.75904,43.18581 14.64475,79.57455 z"
       id="path21"
       style="clip-rule:evenodd;fill:url(#id0);fill-rule:evenodd;image-rendering:optimizeQuality;shape-rendering:geometricPrecision;text-rendering:geometricPrecision"
       inkscape:connector-curvature="0" /><g
       transform="matrix(0.98418464,0.17714568,-0.17714568,0.98418464,133.75403,-96.87072)"
       id="g3690"><line
         style="clip-rule:evenodd;fill:none;fill-rule:evenodd;stroke:#434242;stroke-width:7.94244814;image-rendering:optimizeQuality;shape-rendering:geometricPrecision;text-rendering:geometricPrecision"
         id="line23"
         class="fil2 str0"
         y2="642.48773"
         x1="579.97705"
         x2="588.93829"
         y1="607.90625" /><ellipse
         style="clip-rule:evenodd;fill:#434242;fill-rule:evenodd;stroke:#434242;stroke-width:0.85785508;image-rendering:optimizeQuality;shape-rendering:geometricPrecision;text-rendering:geometricPrecision"
         cy="784.10394"
         cx="-409.33023"
         id="circle25"
         transform="matrix(-0.96809795,0.25057205,0.25039397,0.96814403,0,0)"
         class="fil3 str1"
         rx="17.821438"
         ry="18.434313" /><path
         style="clip-rule:evenodd;fill:#434242;fill-rule:evenodd;image-rendering:optimizeQuality;shape-rendering:geometricPrecision;text-rendering:geometricPrecision"
         inkscape:connector-curvature="0"
         id="path27-1"
         d="m 609.91488,652.13089 c 0,0 15.80385,101.96973 31.73998,116.92072 4.82215,4.55747 3.07768,8.90389 -2.33171,12.76968 -0.58667,0.38646 -7.14617,-11.40862 -7.84008,-10.99473 -0.69391,0.4139 4.58501,13.00934 3.86272,13.31231 -12.28845,6.45296 -34.07659,10.6088 -46.85973,10.21535 -0.70018,-0.0572 3.15665,-37.68159 2.5637,-37.76627 -1.05027,-0.0859 -6.41472,37.45143 -7.27889,37.19977 -17.95867,-3.2059 31.05549,-61.71956 -7.4848,-129.74435 11.26168,-26.99102 33.52157,-11.88504 33.52157,-11.88504 z"
         class="fil3" /></g></g><path
     style="fill:#1a1a1a"
     d="m 815.89691,1496.9033 c -0.6,-0.9821 -3.7695,-1.3874 -7.0434,-0.9007 -3.2738,0.4868 -6.2097,0.1695 -6.5241,-0.7048 -0.3144,-0.8745 -3.3842,-1.8937 -6.8217,-2.265 -3.4375,-0.3713 -6.7187,-1.1909 -7.2917,-1.8215 -1.7511,-1.9271 -37.5,-18.7789 -37.5,-17.6772 0,0.5669 -2.9019,-1.9764 -6.4486,-5.6519 -4.5899,-4.7564 -5.714,-7.1427 -3.8998,-8.2785 1.4019,-0.8776 1.9047,-2.6516 1.1174,-3.9421 -0.7873,-1.2905 -0.4093,-2.3463 0.84,-2.3463 2.1833,0 2.4073,-2.1467 2.4224,-23.2145 0.016,-22.459 -0.2093,-25.3249 -1.9914,-25.3249 -1.0333,0 -1.4308,-2.3741 -0.8832,-5.276 0.5476,-2.9018 0.1832,-5.2803 -0.8097,-5.2855 -0.993,0 -1.9883,-3.5491 -2.2118,-7.8753 -0.2235,-4.3263 -1.2958,-8.1662 -2.383,-8.5334 -1.0871,-0.3671 -1.498,-2.5213 -0.9131,-4.7871 0.6094,-2.3606 0.018,-4.1196 -1.3858,-4.1196 -1.3471,0 -1.9414,-0.8325 -1.3206,-1.8499 1.6522,-2.708 -4.838,-23.475 -7.3364,-23.475 -1.1691,0 -1.5661,-0.917 -0.8822,-2.0379 3.1627,-5.1838 -13.5169,-27.5103 -20.5493,-27.5065 -2.5068,0 -2.8118,-23.2208 -0.3578,-27.2431 0.7588,-1.2437 1.4752,-9.156 1.592,-17.583 0.5536,-39.9161 0.1365,-95.2596 -0.8469,-112.4003 -1.0262,-17.885 -1.8202,-32.8367 -4.1465,-78.085 -0.537,-10.4465 -1.4927,-28.9652 -2.1236,-41.1529 -0.6309,-12.1875 -1.5424,-32.6057 -2.0255,-45.37362 -0.4831,-12.76795 -1.4703,-38.40939 -2.1937,-56.98096 -2.2032,-56.56074 -1.4049,-120.76052 1.5619,-125.62338 0.7319,-1.19962 7.1117,3.23507 14.4402,10.0375 12.8197,11.89963 39.8813,27.49932 49.5155,28.54333 2.6187,0.28377 5.2782,1.21656 5.91,2.07285 1.6954,2.29757 43.8446,12.5339 46.8305,11.37323 1.405,-0.54619 3.372,-0.18022 4.371,0.81327 2.477,2.46333 40.2607,8.93391 44.936,7.69542 2.0654,-0.54716 3.7554,-0.0262 3.7554,1.15753 0,1.19107 2.7914,1.73735 6.25,1.22314 3.4375,-0.51107 6.25,-0.0363 6.25,1.0552 0,1.09144 2.8125,1.56628 6.25,1.0552 3.4375,-0.51107 6.25,-0.30933 6.25,0.44829 0,0.75763 9.6094,3.0794 21.3541,5.15948 11.7448,2.08007 32.6042,6.54198 46.3542,9.91534 54.90239,13.46951 70.43339,21.43597 97.08709,49.79967 20.0477,21.33379 70.2689,86.95911 83.3647,108.93461 l 10.2407,17.1844 -5.763,4.9414 c -3.1696,2.7178 -15.1126,12.0843 -26.54,20.8146 -20.3503,15.5472 -20.9774,15.8493 -30.5277,14.7035 -5.3629,-0.6433 -20.9726,-5.5885 -34.6882,-10.9892 l -24.9375,-9.8194 -19.7538,-26.7086 c -29.20069,-39.4818 -51.39669,-79.02198 -51.55779,-91.8457 -0.093,-7.42475 -11.4256,-25.10402 -20.6795,-32.26175 -12.1602,-9.40561 -28.5353,-14.11417 -49.3305,-14.18465 -21.2874,-0.0721 -36.1635,6.56273 -49.2683,21.9742 -4.9402,5.80977 -9.3406,9.33758 -10.0981,8.09583 -0.7385,-1.2104 -1.3653,0.49034 -1.3928,3.77941 -0.028,3.28908 -1.9838,11.25883 -4.3471,17.71056 -9.0912,24.81862 -11.155,62.1554 -5.5342,100.121 13.2257,89.3321 45.1582,137.1731 78.0155,116.8825 6.4943,-4.0105 8.2551,-4.2123 17.8255,-2.0426 14.0514,3.1853 31.5022,11.7071 53.7607,26.2528 10.0205,6.5483 25.0526,15.5736 33.4046,20.0562 l 15.18559,8.1501 -14.73299,4.7043 c -8.1031,2.5874 -22.2417,8.3344 -31.4191,12.7712 -51.1106,24.7096 -56.3521,56.34 -16.0869,97.0792 13.1942,13.3496 19.685,18.0291 35.8981,25.8808 18.25489,8.8407 40.59349,16.0032 42.83359,13.7341 0.5181,-0.5248 -4.4544,-2.1318 -11.05,-3.5709 -6.5956,-1.4392 -20.79289,-6.8996 -31.54949,-12.1344 -15.5561,-7.5704 -22.6066,-12.6096 -34.4599,-24.6297 -46.2681,-46.9195 -32.0686,-80.2124 45.4679,-106.6062 14.67879,-4.9967 19.64909,-5.8695 23.95259,-4.2063 2.9866,1.1543 9.4854,2.8691 14.4417,3.8107 7.1314,1.3549 9.2572,1.0635 10.1891,-1.3966 1.2047,-3.18 0.6862,-5.1021 -8.62,-31.9574 -6.5198,-18.8141 -6.5193,-18.8016 -0.6847,-19.9401 l 4.6875,-0.9146 -4.6875,-0.2874 c -4.5147,-0.2768 -4.6875,-1.0317 -4.6875,-20.4785 0,-18.6756 0.2889,-20.0981 3.8492,-18.9534 21.7234,6.9843 56.4884,9.3422 67.7106,4.5922 6.0217,-2.5487 28.1695,-25.5601 51.6213,-53.6339 l 7.5561,-9.0453 9.9021,22.7633 c 24.9423,57.3387 76.0273,202.4549 76.0273,215.9698 0,9.0475 -29.925,27.9234 -64.9775,40.9858 -10.6685,3.9757 -18.247,7.2782 -16.8408,7.3389 1.4061,0.061 8.841,-2.286 16.5219,-5.2147 18.2218,-6.9478 21.178,-5.7318 5.0495,2.077 -6.9683,3.3739 -12.6697,6.9655 -12.6697,7.9813 0,1.0157 -0.8348,1.3242 -1.8551,0.6855 -2.3802,-1.4902 -31.4782,11.4637 -31.4782,14.0135 0,1.0564 -0.8337,1.3988 -1.8527,0.7608 -2.4233,-1.5171 -23.1473,7.2196 -23.1473,9.7584 0,1.0744 -0.8337,1.4316 -1.8527,0.7937 -2.3138,-1.4486 -23.1473,7.1626 -23.1473,9.5675 0,0.9696 -1.2854,1.2631 -2.8564,0.6525 -1.571,-0.6107 -4.2719,0.3235 -6.002,2.0761 -1.7301,1.7526 -3.574,2.7526 -4.0975,2.2222 -1.555,-1.5752 -14.1275,3.5126 -14.1275,5.7171 0,1.1157 -0.8298,1.509 -1.844,0.874 -2.4183,-1.5139 -14.8226,2.8932 -14.8226,5.2664 0,1.0108 -1.4063,1.2911 -3.125,0.623 -1.7188,-0.6682 -3.125,-0.1934 -3.125,1.0552 0,1.2485 -1.4063,1.7233 -3.125,1.0552 -1.7188,-0.6682 -3.125,-0.1933 -3.125,1.0552 0,1.2484 -1.4063,1.7233 -3.125,1.0552 -1.7188,-0.6681 -3.125,-0.1074 -3.125,1.2459 0,1.3535 -0.9296,1.8788 -2.0657,1.1676 -2.2143,-1.3863 -25.6444,5.3304 -26.6801,7.6484 -0.3414,0.7641 -2.4507,0.9044 -4.68749,0.3119 -2.2367,-0.5925 -4.0667,-0.1056 -4.0667,1.0817 0,1.1874 -1.875,1.6623 -4.1667,1.0552 -2.2916,-0.607 -4.1666,-0.1322 -4.1666,1.0553 0,1.1874 -1.875,1.6622 -4.1667,1.0551 -2.2917,-0.6071 -4.1688,-0.2807 -4.1714,0.7252 0,1.0059 -2.9141,1.9351 -6.47,2.0649 -3.5559,0.1299 -7.0694,1.0796 -7.8077,2.1105 -0.7384,1.0309 -4.1461,2.0844 -7.5726,2.3411 -3.4265,0.2568 -6.5534,1.4498 -6.9487,2.6512 -0.3954,1.2014 -1.5442,1.6676 -2.553,1.0361 -1.9458,-1.2183 -25.2102,4.9955 -26.9766,7.2052 -0.5729,0.7168 -1.9792,1.3032 -3.125,1.3032 -4.9563,0 -26.0417,6.0935 -26.0417,7.5259 0,0.8667 -1.875,1.079 -4.1666,0.4721 -2.2917,-0.6071 -4.1715,-0.2809 -4.1775,0.7251 -0.01,1.006 -3.9297,2.0576 -8.7194,2.3372 -4.7898,0.2796 -9.2381,1.2293 -9.8851,2.1105 -0.647,0.8811 -5.8639,1.8731 -11.593,2.2044 -5.7292,0.3312 -11.8229,1.185 -13.5417,1.8972 -4.7986,1.9884 -19.0092,1.9431 -20.2358,-0.064 l 0,-10e-5 z m 263.53479,-97.8965 c -5.4043,-0.4331 -14.7793,-0.4377 -20.8334,-0.011 -6.054,0.4277 -1.6323,0.7821 9.826,0.7876 11.4584,0.01 16.4117,-0.3445 11.0074,-0.7776 l 0,6e-4 z m -35.4622,-2.0121 c -1.9919,-0.5282 -5.7419,-0.5474 -8.3334,-0.043 -2.5915,0.5047 -0.9618,0.937 3.6216,0.9604 4.5833,0.023 6.7036,-0.3896 4.7118,-0.9178 l 0,0 z m 59.3507,-0.04 c -2.5782,-0.503 -6.7969,-0.503 -9.375,0 -2.5782,0.503 -0.4688,0.9146 4.6875,0.9146 5.1562,0 7.2656,-0.4116 4.6875,-0.9146 z m 27.6041,-3.7385 c 13.8403,-3.6038 7.6727,-3.6858 -9.375,-0.1248 -7.4479,1.5559 -10.7291,2.8306 -7.2916,2.833 3.4375,0 10.9375,-1.2164 16.6666,-2.7082 z m 29.1667,-7.7187 c 2.8604,-1.2679 1.8806,-1.4271 -3.125,-0.5077 -4.0104,0.7367 -9.1667,2.1706 -11.4583,3.1865 -2.8604,1.2679 -1.8807,1.4271 3.125,0.5076 4.0104,-0.7367 9.1666,-2.1705 11.4583,-3.1864 z m -104.1667,-153.7748 c 2.6264,-1.1432 3.0114,-1.8137 1.0417,-1.8137 -1.7188,0 -5,0.8161 -7.2917,1.8137 -2.6263,1.1433 -3.0114,1.8138 -1.0416,1.8138 1.7187,0 5,-0.8163 7.2916,-1.8138 z m 33.3334,-9.6948 c 18.1254,-5.7833 32.9029,-14.7215 34.0156,-20.5745 0.8861,-4.6607 -3.256,-9.8703 -7.7082,-9.6946 -2.2946,0.09 -1.8754,0.7508 1.2967,2.0424 12.9174,5.2596 -2.8729,18.9325 -31.7708,27.5105 -8.0208,2.3808 -16.9271,5.2282 -19.7917,6.3274 -10.0899,3.8716 6.1813,0.061 23.9584,-5.6112 z m -36.9792,-29.7472 c -2.0052,-0.5308 -5.2865,-0.5308 -7.2917,0 -2.0052,0.5308 -0.3646,0.9651 3.6459,0.9651 4.0104,0 5.651,-0.4343 3.6458,-0.9651 z m 29.1667,-2.193 c -4.2969,-0.4554 -11.3282,-0.4554 -15.625,0 -4.2969,0.4553 -0.7813,0.8278 7.8125,0.8278 8.5937,0 12.1093,-0.3725 7.8125,-0.8278 z m 25,0.025 c -3.1511,-0.4835 -8.3073,-0.4835 -11.4584,0 -3.151,0.4835 -0.5729,0.8792 5.7292,0.8792 6.3021,0 8.8802,-0.3957 5.7292,-0.8792 z M 822.78791,926.52777 c -0.6093,-1.6083 -2.309,-2.8492 -3.7773,-2.75757 -2.0909,0.13051 -2.1051,0.39734 -0.065,1.23107 1.5384,0.62882 2.7531,5.52698 2.9681,11.96822 l 0.364,10.90376 0.8091,-9.21066 c 0.4451,-5.06587 0.3107,-10.52653 -0.2985,-12.13482 z m -22.6718,-2.87156 c -15.6731,-1.61651 -24.2055,-6.46455 -27.4079,-15.57287 -3.6868,-10.48638 11.2684,-24.0481 39.2335,-35.57777 8.1488,-3.35967 12.0035,-5.519 8.566,-4.7985 -9.946,2.08467 -35.2994,15.11913 -42.3076,21.75085 -8.6699,8.20419 -10.4265,16.04052 -5.2115,23.24977 6.2121,8.5876 16.6682,13.04331 29.8108,12.7034 l 11.4583,-0.29634 -14.1416,-1.45854 z"
     id="path3703"
     inkscape:connector-curvature="0" /><path
     style="fill:#000000"
     d="m 820.55146,1504.0104 c -27.58834,-3.4156 -58.82554,-17.3804 -79.48105,-35.5326 l -3.96022,-3.4803 2.0311,-4.1666 c 4.03906,-8.2859 4.77868,-13.0596 4.76106,-30.7292 -0.0194,-19.4269 -1.7549,-32.3394 -7.21042,-53.6458 -6.20472,-24.2324 -13.72283,-42.5606 -19.92327,-48.5703 -3.62331,-3.5118 -8.90833,-4.5476 -13.14428,-2.5761 -2.33514,1.0868 -2.33966,-0.29 -0.15148,-46.1302 2.01442,-42.2001 1.5125,-85.8601 -1.57011,-136.5776 -11.40973,-187.7219 -13.20656,-287.65571 -6.24401,-347.27143 l 1.20204,-10.29226 4.29753,8.20893 c 6.35551,12.14 10.45515,17.7025 19.86908,26.95893 25.57756,25.14966 53.181,34.24369 166.15499,54.74024 67.60711,12.26577 88.48742,16.81373 110.45237,24.05772 31.03191,10.23428 47.26181,19.80256 66.71821,39.33356 11.6822,11.72702 15.0488,15.96497 69.6332,87.65571 18.2051,23.9105 27.3925,40.1708 24.2765,42.9657 -1.638,1.4693 -2.4779,0.3742 -10.9777,-14.3126 -5.0622,-8.7469 -12.6547,-20.3087 -16.8722,-25.6928 -4.2176,-5.384 -15.0447,-19.3986 -24.0603,-31.14336 -25.4143,-33.10751 -32.9944,-42.10093 -48.7644,-57.85649 -22.3453,-22.32475 -31.7347,-27.58786 -67.51764,-37.84612 -27.94593,-8.01154 -83.3353,-19.79768 -86.79707,-18.46927 -0.80957,0.31066 -1.47193,0.0813 -1.47193,-0.50962 0,-0.59095 -0.82031,-0.97295 -1.82292,-0.84888 -1.0026,0.12406 -2.52604,-0.0288 -3.38541,-0.33969 -0.85938,-0.31089 -7.65625,-1.5478 -15.10417,-2.74871 -7.44792,-1.2009 -22.14234,-3.59594 -32.65428,-5.32232 -10.51194,-1.72637 -19.50299,-2.8976 -19.98011,-2.60272 -0.47712,0.29488 -1.14518,0.0868 -1.48458,-0.46234 -0.3394,-0.54916 -2.59835,-1.28143 -5.0199,-1.62726 -12.98989,-1.85518 -14.27391,-2.09536 -16.68731,-3.12147 -1.02731,-0.43678 -2.15605,-0.50593 -2.50832,-0.15367 -0.35226,0.35227 -1.22021,0.15936 -1.92876,-0.42869 -0.70855,-0.58805 -1.68919,-0.97831 -2.17918,-0.86726 -0.48999,0.11106 -1.59402,-0.086 -2.45339,-0.4378 -3.50449,-1.43481 -13.96515,-3.71892 -14.76574,-3.22412 -0.4726,0.29208 -0.85926,0.0868 -0.85926,-0.45616 0,-0.54297 -1.75782,-1.35461 -3.90625,-1.80364 -2.14844,-0.44903 -4.14063,-0.86937 -4.42709,-0.93409 -0.28646,-0.0647 -1.45833,-0.62215 -2.60416,-1.23874 -2.11996,-1.14079 -7.48529,-2.80829 -9.375,-2.91368 -0.57292,-0.032 -1.68805,-0.67099 -2.47807,-1.42008 -0.79001,-0.7491 -2.07907,-1.11537 -2.86458,-0.81394 -0.7855,0.30142 -1.42819,0.0159 -1.42819,-0.63454 0,-0.65042 -0.29018,-0.89241 -0.64484,-0.53775 -0.35466,0.35467 -1.32995,-0.0403 -2.16731,-0.87763 -0.83736,-0.83735 -1.95343,-1.25612 -2.48016,-0.93058 -0.52673,0.32553 -0.95769,0.0678 -0.95769,-0.57274 0,-0.64054 -0.46875,-0.87491 -1.04166,-0.52083 -0.57292,0.35408 -1.04167,0.11971 -1.04167,-0.52084 0,-0.64054 -0.46875,-0.87491 -1.04167,-0.52083 -0.57291,0.35408 -1.04166,0.19323 -1.04166,-0.35745 0,-0.55069 -1.28907,-1.51612 -2.86459,-2.1454 -9.55933,-3.81814 -24.23394,-15.3751 -34.18741,-26.92423 -4.43149,-5.14191 -5.93295,-5.5673 -5.51281,-1.56188 0.1653,1.57587 -0.0434,3.42175 -0.4638,4.10195 -0.42039,0.68021 -0.75161,2.55493 -0.73603,4.16604 0.0156,1.61112 -0.31486,8.5543 -0.73429,15.4293 -0.93433,15.3148 -0.94027,59.56264 -0.0117,86.97917 0.37839,11.17188 0.88072,26.17188 1.11629,33.33333 0.85999,26.14444 2.72319,68.80103 4.17456,95.57353 0.28731,5.2999 0.75674,13.9717 1.04318,19.2709 0.28644,5.2991 0.75299,13.8535 1.03679,19.0097 0.28379,5.1563 0.74652,13.8282 1.02829,19.2709 0.92855,17.9363 1.61149,29.5524 2.32722,39.5833 0.99222,13.9059 1.13168,103.5735 0.19036,122.3958 -0.42978,8.5938 -1.24177,19.8438 -1.80441,25 -0.56265,5.1563 -1.03132,11.4185 -1.0415,13.9161 l -0.0185,4.541 3.64584,-0.4256 c 2.0052,-0.2341 3.64583,-0.1262 3.64583,0.2397 0,0.3659 1.09697,1.1651 2.43771,1.776 1.34075,0.6109 4.24314,3.8502 6.44976,7.1984 2.20663,3.3483 4.39383,6.245 4.86045,6.4372 0.46661,0.1921 0.58343,0.7781 0.25959,1.302 -0.32384,0.524 -0.19283,0.9527 0.29113,0.9527 0.83132,0 1.0447,0.9086 1.52897,6.5105 0.11144,1.289 1.05678,2.9617 2.10076,3.7171 1.04398,0.7553 1.62827,1.81 1.29841,2.3437 -0.32985,0.5337 -0.0756,0.9704 0.56489,0.9704 0.64054,0 0.92271,0.3914 0.62706,0.8698 -0.74777,1.2099 1.59746,8.5052 2.73418,8.5052 0.51061,0 0.62598,0.4893 0.25639,1.0873 -0.36959,0.598 -0.10452,1.7711 0.58905,2.6068 0.73539,0.8861 1.00073,2.8209 0.63655,4.6418 -0.34347,1.7174 -0.18869,3.1224 0.34394,3.1224 0.53263,0 1.28574,1.7579 1.67357,3.9063 0.38783,2.1484 1.19705,4.8437 1.79828,5.9896 0.60123,1.1458 1.24838,3.4607 1.43812,5.1443 0.18974,1.6835 0.80518,4.77 1.36765,6.8589 3.16444,11.7518 4.53393,23.5041 4.70085,40.3405 0.10712,10.8056 -0.21719,17.9688 -0.81353,17.9688 -0.54542,0 -0.73348,0.6728 -0.41791,1.4952 0.31557,0.8223 0.051,1.6694 -0.58785,1.8824 -1.21535,0.4051 -1.84743,3.0396 -2.17328,9.0582 -0.16726,3.0896 0.37859,3.9869 3.97276,6.5309 5.55307,3.9307 11.9753,7.3116 11.99512,6.3149 0.009,-0.4414 0.36033,-0.2757 0.78125,0.3681 0.92189,1.4102 15.87562,9.0017 23.45445,11.9072 2.98972,1.1461 6.37335,2.5033 7.51918,3.016 9.52726,4.2626 33.43624,8.1266 42.51535,6.871 2.97073,-0.4109 6.92475,-0.6923 8.78673,-0.6254 1.86198,0.067 3.38542,-0.3178 3.38542,-0.855 0,-0.5373 0.82031,-0.7657 1.82292,-0.5076 1.0026,0.2581 5.10416,-0.2856 9.11458,-1.2082 4.01042,-0.9226 8.34635,-1.6516 9.63542,-1.6201 1.28906,0.032 2.34375,-0.4338 2.34375,-1.0341 0,-0.6003 0.42653,-0.8279 0.94784,-0.5057 1.03845,0.6418 19.43014,-3.1604 22.00889,-4.55 0.8814,-0.475 3.57671,-1.1971 5.98958,-1.6048 2.41285,-0.4076 4.38702,-1.1964 4.38702,-1.7527 0,-0.5564 0.41288,-0.7564 0.91753,-0.4445 0.50464,0.3118 4.37182,-0.4257 8.59375,-1.6389 17.19751,-4.9422 28.59584,-8.3328 30.07205,-8.9456 0.85938,-0.3567 2.74958,-0.7084 4.20045,-0.7817 1.45088,-0.073 3.12933,-0.4369 3.72991,-0.8081 1.55633,-0.9618 9.69064,-3.5794 13.68423,-4.4035 1.86198,-0.3842 3.38541,-1.1577 3.38541,-1.7189 0,-0.5612 0.47148,-0.729 1.04774,-0.3729 0.57626,0.3562 2.56845,0.1404 4.42709,-0.4796 4.72749,-1.5768 24.506,-6.3992 28.90018,-7.0465 2.0052,-0.2953 4.1146,-0.8888 4.6875,-1.3188 0.5729,-0.43 3.5026,-1.3587 6.5104,-2.0638 3.0078,-0.7051 5.4688,-1.6893 5.4688,-2.1871 0,-0.4978 0.6852,-0.6421 1.5226,-0.3207 0.8375,0.3213 2.8892,-0.097 4.5593,-0.9306 1.6701,-0.8332 4.5006,-1.3997 6.2898,-1.2589 1.7893,0.1407 3.2533,-0.096 3.2533,-0.5267 0,-0.4304 3.8671,-2.0325 8.5937,-3.5604 4.7266,-1.5278 9.5313,-3.2157 10.6771,-3.751 5.6741,-2.6502 13.3582,-5.0106 14.6716,-4.5066 0.8108,0.3111 1.4742,0.088 1.4742,-0.4963 0,-0.5842 3.3985,-2.3209 7.5521,-3.8594 4.1537,-1.5384 9.5392,-3.6888 11.9678,-4.7785 2.4287,-1.0897 5.0302,-1.9813 5.7813,-1.9813 0.751,0 1.8108,-0.3957 2.3551,-0.8793 0.5442,-0.4836 3.6849,-1.9442 6.9791,-3.246 3.2943,-1.3017 5.9896,-2.8087 5.9896,-3.3488 0,-0.5402 0.455,-0.701 1.0111,-0.3573 0.5561,0.3437 2.4449,-0.1166 4.1973,-1.0228 1.7524,-0.9062 3.6723,-1.3472 4.2665,-0.9799 0.5942,0.3672 1.7146,-0.1996 2.4896,-1.2595 0.7751,-1.06 1.7986,-1.9313 2.2745,-1.9363 2.0975,-0.022 10.761,-3.9074 10.761,-4.8261 0,-0.5593 0.455,-0.7358 1.0111,-0.3921 0.5561,0.3437 2.4014,-0.094 4.1007,-0.9728 1.6993,-0.8787 3.8224,-1.3165 4.7181,-0.9728 0.9013,0.3459 1.6285,0.084 1.6285,-0.5859 0,-0.666 2.3437,-2.1849 5.2083,-3.3754 2.8646,-1.1904 5.2083,-2.5984 5.2083,-3.1287 0,-0.5304 0.4366,-0.6945 0.9702,-0.3647 1.1823,0.7307 8.4048,-2.5829 8.4048,-3.856 0,-0.5006 0.4527,-0.6305 1.006,-0.2885 0.5532,0.3419 2.8699,-0.3292 5.148,-1.4915 2.2782,-1.1622 4.8724,-1.8329 5.7649,-1.4904 0.8926,0.3425 1.6228,0.134 1.6228,-0.4633 0,-0.5972 8.7343,-5.3333 19.4096,-10.5245 39.0767,-19.0024 55.5904,-31.2776 55.5904,-41.3221 0,-6.4809 -21.6059,-72.908 -40.0413,-123.1065 -11.841,-32.2425 -25.8128,-67.5013 -36.0006,-90.8505 -11.4394,-26.2175 -10.9085,-24.7145 -9.3803,-26.5558 1.4905,-1.796 2.0643,-0.6305 18.2009,36.9725 30.3366,70.6928 57.2645,143.2722 74.9059,201.8958 l 2.6081,8.6666 -5.4068,5.1708 c -14.4149,13.7859 -40.642,27.6616 -108.5317,57.4197 -57.9737,25.4117 -96.4165,39.3361 -138.6878,50.2342 -14.4033,3.7133 -35.96576,10.1046 -47.91666,14.2029 -48.76034,16.7212 -83.49283,26.8179 -105.58308,30.6929 -11.40498,2.0006 -30.66375,2.6923 -40.625,1.4591 z"
     id="path3705"
     inkscape:connector-curvature="0" /></svg>